	<svg
		width="326"
		height="578"
		viewBox="0 0 326 578"
		fill="none"
		xmlns="http://www.w3.org/2000/svg"
	>
		<g clip-path="url(#clip0_298_7361)">
			<path
				d="M143.265 239.938C143.125 240.009 143.125 240.009 143.265 239.938C142.425 239.31 141.094 239.802 141.303 240.92C141.442 241.899 142.632 242.177 143.334 241.477L143.474 241.406C143.824 241.056 143.615 240.287 143.265 239.938Z"
				fill="#623A3A"
			/>
			<path
				d="M175.851 230.798C175.011 230.17 173.679 230.661 173.889 231.78C174.028 232.758 175.218 233.036 175.92 232.336L176.06 232.266C176.41 231.916 176.341 231.077 175.851 230.798Z"
				fill="#623A3A"
			/>
			<path
				d="M152.323 221.954C149.801 222.167 150.217 226.152 152.739 225.939C155.262 225.725 154.845 221.74 152.323 221.954Z"
				fill="#623A3A"
			/>
			<path
				d="M235.511 192.387C232.988 192.601 233.405 196.586 235.927 196.372C238.589 196.088 238.173 192.103 235.511 192.387Z"
				fill="#623A3A"
			/>
			<path
				d="M212.581 216.266C210.059 216.48 210.475 220.465 212.997 220.251C215.66 219.967 215.243 215.982 212.581 216.266Z"
				fill="#623A3A"
			/>
			<path
				d="M170.159 185.776C167.637 185.99 168.053 189.975 170.575 189.761C173.238 189.477 172.822 185.492 170.159 185.776Z"
				fill="#623A3A"
			/>
			<path
				d="M79.8367 265.906C78.015 266.119 78.2922 269.125 80.1139 268.913C81.9355 268.7 81.6584 265.694 79.8367 265.906Z"
				fill="#623A3A"
			/>
			<path
				d="M111.373 255.369C110.533 255.44 110.671 256.768 111.442 256.557C112.283 256.486 112.214 255.298 111.373 255.369Z"
				fill="#623A3A"
			/>
			<path
				d="M140.311 250.849C139.47 250.92 139.609 252.249 140.45 252.177C141.22 251.966 141.152 250.778 140.311 250.849Z"
				fill="#623A3A"
			/>
			<path
				d="M99.4582 262.38C97.146 262.663 97.4927 266.159 99.8049 265.876C102.187 265.732 101.77 262.097 99.4582 262.38Z"
				fill="#623A3A"
			/>
			<path
				d="M125.593 263.11C123.141 263.463 123.558 267.099 126.08 266.885C128.392 266.602 128.046 262.757 125.593 263.11Z"
				fill="#623A3A"
			/>
			<path
				d="M130.162 247.37C130.232 247.51 130.302 247.649 130.162 247.719C130.231 248.558 130.862 248.767 131.492 248.626C132.193 248.625 132.684 248.205 132.614 247.366C132.545 247.226 132.615 247.016 132.615 247.016C132.406 245.548 129.744 245.832 130.162 247.37Z"
				fill="#623A3A"
			/>
			<path
				d="M206.218 203.552C206.148 203.412 206.148 203.412 206.218 203.552C205.378 202.924 204.047 203.415 204.256 204.534C204.395 205.512 205.585 205.79 206.287 205.09L206.427 205.02C206.708 204.53 206.708 203.831 206.218 203.552Z"
				fill="#623A3A"
			/>
			<path
				d="M204.507 233.411C203.667 232.783 202.336 233.275 202.545 234.393C202.684 235.372 203.875 235.65 204.576 234.949L204.716 234.879C204.997 234.389 204.997 233.69 204.507 233.411Z"
				fill="#623A3A"
			/>
			<path
				d="M241.828 179.792C240.988 179.164 239.656 179.655 239.865 180.774C240.004 181.753 241.195 182.03 241.896 181.33L242.036 181.26C242.387 180.91 242.318 180.071 241.828 179.792Z"
				fill="#623A3A"
			/>
			<path
				d="M208.831 180.053C206.309 180.267 206.725 184.252 209.247 184.038C211.769 183.825 211.353 179.84 208.831 180.053Z"
				fill="#623A3A"
			/>
			<path
				d="M157.731 211.736C155.769 212.019 156.187 214.955 158.008 214.743C159.97 214.46 159.693 211.454 157.731 211.736Z"
				fill="#623A3A"
			/>
			<path
				d="M131.037 209.191C130.197 209.262 130.335 210.59 131.176 210.519C131.947 210.308 131.878 209.12 131.037 209.191Z"
				fill="#623A3A"
			/>
			<path
				d="M150.037 197.064C149.197 197.135 149.335 198.464 150.106 198.253C150.947 198.182 150.808 196.853 150.037 197.064Z"
				fill="#623A3A"
			/>
			<path
				d="M219.319 199.265C218.478 199.336 218.617 200.665 219.457 200.593C220.228 200.383 220.159 199.194 219.319 199.265Z"
				fill="#623A3A"
			/>
			<path
				d="M230.201 176.523C229.361 176.594 229.499 177.923 230.34 177.851C231.111 177.64 231.042 176.452 230.201 176.523Z"
				fill="#623A3A"
			/>
			<path
				d="M256.967 174.316C256.126 174.387 256.265 175.715 257.106 175.644C257.877 175.433 257.808 174.245 256.967 174.316Z"
				fill="#623A3A"
			/>
			<path
				d="M174.483 203.88C173.642 203.952 173.781 205.28 174.621 205.209C175.392 204.998 175.183 203.879 174.483 203.88Z"
				fill="#623A3A"
			/>
			<path
				d="M151.733 185.734C150.962 185.945 151.031 187.134 151.872 187.063C152.712 186.991 152.574 185.663 151.733 185.734Z"
				fill="#623A3A"
			/>
			<path
				d="M184.17 185.056C183.33 185.128 183.468 186.456 184.239 186.245C185.08 186.174 184.941 184.845 184.17 185.056Z"
				fill="#623A3A"
			/>
			<path
				d="M165.686 240.603C164.845 240.674 164.984 242.003 165.825 241.931C166.595 241.72 166.527 240.532 165.686 240.603Z"
				fill="#623A3A"
			/>
			<path
				d="M135.967 188.906C135.126 188.977 135.265 190.306 136.036 190.095C137.017 189.953 136.738 188.695 135.967 188.906Z"
				fill="#623A3A"
			/>
			<path
				d="M144.771 207.911C142.459 208.194 142.946 211.62 145.118 211.407C147.43 211.123 147.084 207.628 144.771 207.911Z"
				fill="#623A3A"
			/>
			<path
				d="M173.765 215.768C171.313 216.122 171.729 219.757 174.252 219.543C176.564 219.26 176.287 215.555 173.765 215.768Z"
				fill="#623A3A"
			/>
			<path
				d="M184.366 198.411C184.435 198.551 184.505 198.69 184.365 198.76C184.434 199.599 185.065 199.808 185.695 199.667C186.396 199.666 186.887 199.246 186.818 198.407C186.748 198.267 186.818 198.057 186.818 198.057C186.749 196.519 184.087 196.803 184.366 198.411Z"
				fill="#623A3A"
			/>
			<path
				d="M191.669 183.226C191.739 183.366 191.809 183.506 191.668 183.576C191.738 184.415 192.368 184.624 192.999 184.483C193.699 184.482 194.19 184.061 194.121 183.222C194.051 183.083 194.121 182.873 194.121 182.873C194.123 181.474 191.46 181.758 191.669 183.226Z"
				fill="#623A3A"
			/>
			<path
				d="M117.58 220.819C117.371 219.701 116.251 219.213 115.619 220.053C114.988 220.893 115.687 221.941 116.528 221.87L116.668 221.8C117.229 221.869 117.65 221.309 117.58 220.819Z"
				fill="#623A3A"
			/>
			<path
				d="M193.713 239.511C193.504 238.392 192.383 237.905 191.752 238.745C191.121 239.585 191.82 240.632 192.661 240.561L192.801 240.491C193.361 240.56 193.782 240 193.713 239.511Z"
				fill="#623A3A"
			/>
			<path
				d="M98.705 243.712C98.496 242.593 97.3756 242.106 96.7442 242.946C96.1128 243.786 96.8123 244.834 97.6531 244.762L97.7933 244.692C98.2135 244.831 98.8445 244.341 98.705 243.712Z"
				fill="#623A3A"
			/>
			<path
				d="M115.33 229.283C113.44 227.607 110.774 230.688 112.664 232.363C114.624 234.178 117.289 231.098 115.33 229.283Z"
				fill="#623A3A"
			/>
			<path
				d="M107.714 209.855C106.244 208.669 104.35 210.84 105.68 212.096C107.15 213.283 109.184 211.042 107.714 209.855Z"
				fill="#623A3A"
			/>
			<path
				d="M123.909 191.791C122.439 190.605 120.545 192.775 121.875 194.032C123.345 195.218 125.379 192.977 123.909 191.791Z"
				fill="#623A3A"
			/>
			<path
				d="M100.258 232.453C99.6277 231.894 98.8562 232.804 99.4861 233.363C99.9759 233.991 100.818 232.871 100.258 232.453Z"
				fill="#623A3A"
			/>
			<path
				d="M125.931 201.437C125.721 200.668 124.6 200.879 124.669 201.718C124.879 202.487 126 202.276 125.931 201.437Z"
				fill="#623A3A"
			/>
			<path
				d="M88.1874 255.964C87.5574 255.406 86.7859 256.316 87.4158 256.874C88.0457 257.433 88.8173 256.523 88.1874 255.964Z"
				fill="#623A3A"
			/>
			<path
				d="M95.794 217.565C95.6538 217.636 95.5836 217.845 95.5836 217.845C95.0225 218.476 95.3021 219.035 95.722 219.523C96.1418 220.012 96.9123 220.151 97.4035 219.381C97.5437 219.311 97.6838 219.241 97.6139 219.101C98.8061 217.98 96.7061 216.235 95.794 217.565Z"
				fill="#623A3A"
			/>
			<path
				d="M160.222 242.289C158.752 241.103 156.858 243.273 158.188 244.53C159.728 245.856 161.692 243.475 160.222 242.289Z"
				fill="#623A3A"
			/>
			<path
				d="M223.183 188.072C221.713 186.886 219.819 189.056 221.149 190.313C222.478 191.569 224.653 189.259 223.183 188.072Z"
				fill="#623A3A"
			/>
			<path
				d="M190.643 222.174C189.173 220.987 187.28 223.158 188.61 224.414C190.22 225.531 192.113 223.36 190.643 222.174Z"
				fill="#623A3A"
			/>
			<path
				d="M183.187 255.259C182.557 254.701 181.786 255.611 182.416 256.169C183.046 256.728 183.817 255.818 183.187 255.259Z"
				fill="#623A3A"
			/>
			<path
				d="M141.773 259.728C141.143 259.17 140.372 260.08 141.002 260.638C141.422 261.127 142.333 260.147 141.773 259.728Z"
				fill="#623A3A"
			/>
			<path
				d="M154.46 258.799C152.71 257.403 150.466 259.923 152.146 261.529C153.896 262.925 156.28 260.334 154.46 258.799Z"
				fill="#623A3A"
			/>
			<path
				d="M165.107 258.714C164.966 258.784 165.036 258.924 164.896 258.994C164.335 259.624 164.615 260.183 165.034 260.672C165.454 261.161 166.225 261.299 166.716 260.529C166.856 260.459 166.926 260.249 166.926 260.249C167.978 259.199 166.019 257.384 165.107 258.714Z"
				fill="#623A3A"
			/>
		</g>
		<defs>
			<clipPath id="clip0_298_7361">
				<rect
					width="224"
					height="85"
					fill="white"
					transform="translate(37 234.229) rotate(-26.58)"
				/>
			</clipPath>
		</defs>
	</svg>
