	<svg
		width="326"
		height="578"
		viewBox="0 0 326 578"
		fill="none"
		xmlns="http://www.w3.org/2000/svg"
	>
		<path
			d="M242.385 255.26C241.555 255.071 241.01 254.849 240.751 254.596C239.453 253.328 238.413 249.201 237.892 247.137C237.372 245.073 236.203 242.376 235.162 238.249C234.122 234.121 231.398 233.015 230.749 232.381C230.1 231.747 230.1 231.747 231.783 228.726C231.964 228.281 232.431 227.804 232.897 227.327C235.54 224.622 241.217 221.15 246.661 218.694C253.271 215.823 258.848 216.607 260.274 216.446C261.7 216.284 262.998 217.552 264.424 217.391C265.28 217.294 267.25 217.354 269.896 217.762C271.711 217.981 273.501 218.486 275.421 219.118C279.675 220.476 285.823 222.752 287.327 223.289C285.849 222.466 278.377 219.208 273.474 217.216C268.027 215.002 265.823 215.959 264.525 214.691C263.228 213.423 265.56 211.037 265.56 211.037C265.56 211.037 265.688 209.607 268.02 207.221C268.953 206.266 270.689 204.23 272.891 201.717C275.249 199.045 277.814 195.641 280.197 192.683C280.845 191.761 281.622 190.965 282.27 190.043C286.751 184.159 291.878 174.24 292.085 173.509C291.593 174.272 283.02 187.977 278.512 192.591C273.847 197.364 272.293 198.955 270.867 199.116C269.44 199.278 269.44 199.278 267.365 198.805C265.29 198.332 263.864 198.494 260.491 196.753C257.378 195.266 258.513 187.355 258.641 185.925C258.797 185.766 258.667 185.64 258.667 185.64C258.667 185.64 256.984 188.66 256.598 192.949C256.239 196.951 256.629 198.888 255.592 199.43C255.592 199.43 255.437 199.589 255.307 199.462C253.881 199.624 244.803 198.529 239.228 199.301C233.653 200.073 230.022 199.635 228.596 199.797L224.318 200.281C222.892 200.443 221.465 200.604 220.817 199.97C220.168 199.336 216.666 199.025 216.146 196.961C215.834 195.723 217.358 188.192 219.712 180.851C221.445 175.703 223.438 170.808 225.666 168.008C231.236 161.011 238.983 151.785 239.76 150.99C240.538 150.195 246.242 149.549 247.797 147.958C249.352 146.367 251.684 143.981 254.665 142.228C255.416 141.719 256.453 141.177 257.62 140.762C257.62 140.762 257.62 140.762 257.775 140.603C260.134 139.487 263.064 138.306 264.671 137.7C262.053 138.562 255.493 140.861 251.968 142.392C247.561 144.306 245.357 145.263 243.931 145.424C242.505 145.585 243.154 146.22 241.856 144.951C240.558 143.683 241.072 137.965 240.424 137.331C240.294 137.204 240.268 137.49 240.087 137.935C239.622 139.969 239.057 147.815 237.192 149.724C234.86 152.111 227.634 163.399 224.524 166.581C221.415 169.763 219.86 171.354 219.731 172.784C219.603 174.213 212.383 193.284 211.996 196.016C211.739 198.875 210.184 200.466 209.279 202.691C208.373 204.916 206.298 204.443 205.392 206.668C204.486 208.893 201.897 214.139 199.693 215.095C197.49 216.052 196.064 216.214 193.86 217.171C191.656 218.127 186.729 217.978 185.303 218.139C183.877 218.301 178.949 218.151 176.225 217.044C173.502 215.937 168.441 210.992 167.272 208.294C166.102 205.596 168.82 198.921 176.958 193.189C185.097 187.457 188.206 184.276 193.782 185.059C199.073 185.876 205.661 186.403 206.231 186.339C205.686 186.118 196.634 183.18 193.911 183.63C191.059 183.953 187.429 185.071 186.78 184.437C186.391 184.056 187.142 183.547 187.92 182.751C188.671 182.242 189.423 181.732 189.889 181.255C190.667 180.46 193.648 178.707 194.425 177.912C195.202 177.116 195.331 175.687 196.237 173.462C196.936 171.968 197.919 168.885 198.514 166.978C197.375 170.22 194.762 177.308 192.999 178.073C190.795 179.03 189.241 180.621 187.037 181.578C184.834 182.535 184.576 185.394 182.373 186.351C180.169 187.308 173.43 191.608 170.605 193.201C167.624 194.953 166.198 195.115 165.42 195.91C164.643 196.706 161.791 197.029 158.938 197.351L153.234 197.997C151.807 198.158 148.955 198.481 144.156 196.902C139.357 195.323 138.58 196.118 136.633 194.216C134.687 192.314 133.518 189.616 132.997 187.553C132.477 185.489 128.584 181.685 128.584 181.685C128.584 181.685 130.87 186.095 131.39 188.159C132.765 188.569 132.739 188.855 132.869 188.982C132.74 190.412 134.687 192.314 133.261 192.475C131.835 192.637 127.556 193.121 125.481 192.648C124.236 192.365 122.161 191.892 120.916 191.608C121.461 191.83 121.98 192.337 121.202 193.132C119.648 194.723 115.241 196.637 113.686 198.228C112.131 199.819 113.429 201.087 107.339 206.021C101.404 210.797 98.2944 213.978 98.2944 213.978C98.2944 213.978 108.014 207.926 109.414 206.494C110.813 205.062 117.809 197.903 120.013 196.946C122.216 195.989 128.698 194.548 130.773 195.021C132.848 195.493 136.87 197.868 138.945 198.341C141.02 198.813 145.562 203.252 146.21 203.886C146.859 204.52 144.919 210.399 144.142 211.195C143.364 211.99 134.32 219.947 131.86 223.763C129.399 227.579 125.512 231.557 125.512 231.557C125.512 231.557 124.89 232.193 123.853 232.735C121.469 234.137 116.855 236.781 111.15 237.427C102.593 238.396 95.7472 239.17 93.6722 238.698C91.5972 238.225 85.0098 237.697 84.5947 237.603C84.7245 237.729 86.7738 238.488 89.6789 239.15C94.0884 240.349 100.599 241.734 105.344 240.773C113.252 239.17 116.882 238.052 118.179 239.32C119.477 240.588 123.627 241.533 124.276 242.167C124.925 242.801 127.649 243.908 128.946 245.176C130.244 246.444 130.636 249.937 131.933 251.206C133.231 252.474 135.569 257.869 136.867 259.137C138.165 260.405 138.556 263.898 137.651 266.123C136.745 268.348 136.931 274.129 136.879 274.7L139.307 261.832C139.307 261.832 143.977 264.841 146.701 265.948C149.425 267.055 158.631 266.72 159.15 267.227C159.28 267.354 159.124 267.513 158.969 267.672C157.414 269.263 149.793 273.946 148.031 274.712C145.827 275.669 142.589 280.28 133.93 283.949C125.116 287.776 109.457 292.378 110.883 292.217C112.024 292.088 126.076 288.092 135.876 284.294C139.09 283.082 141.735 281.933 143.393 280.755C150.133 276.455 152.208 276.928 154.411 275.971C156.615 275.014 158.041 274.852 159.467 274.691C160.893 274.529 162.319 274.368 162.319 274.368C162.319 274.368 158.824 281.839 158.439 286.127C158.053 290.416 155.883 300.425 153.422 304.241C151.117 307.897 137.337 327.71 135.86 330C137.467 327.837 151.74 308.817 153.037 308.529L153.167 308.656C154.179 309.956 153.254 320.249 153.177 321.107C153.409 320.09 156.665 305.855 158.58 300.261C160.52 294.381 168.127 272.579 170.459 270.192C170.615 270.033 170.77 269.874 170.77 269.874C173.491 267.868 181.348 266.837 183.267 265.913C185.47 264.956 189.877 263.042 192.601 264.149C195.325 265.256 197.92 267.792 199.218 269.06C200.515 270.328 197.021 277.798 196.115 280.023C195.209 282.248 197.676 286.214 194.566 289.396C191.457 292.578 183.806 291.321 181.731 290.849C179.655 290.376 169.879 290.775 169.153 290.999C169.724 290.934 179.008 291.298 181.602 292.278C183.651 293.037 187.516 294.014 190.006 294.582C190.836 294.771 191.407 294.706 191.822 294.801C193.248 294.639 193.897 295.273 193.119 296.069C192.342 296.864 195.323 295.112 196.229 292.887C197.135 290.662 197.649 284.944 199.981 282.557C202.313 280.171 202.57 277.312 203.347 276.516C204.124 275.721 208.14 270.314 213.818 268.398C219.651 266.323 230.385 263.127 234.143 260.579C237.149 258.541 239.068 257.616 239.819 257.107C239.975 256.948 240.105 257.074 240.105 257.074C240.105 257.074 249.182 258.17 251.257 258.642C253.332 259.115 255.536 258.158 255.536 258.158C255.536 258.158 245.965 256.27 242.385 255.26ZM230.442 205.955C231.064 205.319 232.853 204.268 234.486 203.375C235.082 203.025 235.808 202.801 236.404 202.451C238.608 201.494 253.882 201.18 255.957 201.653C258.032 202.125 260.107 202.598 261.533 202.436C262.959 202.275 268.536 203.059 268.536 203.059C268.536 203.059 265.426 206.241 261.668 208.789C260.605 209.616 259.698 210.285 258.947 210.795C256.822 212.45 255.603 213.437 255.084 212.93C254.436 212.296 253.009 212.457 252.232 213.253C251.455 214.048 251.326 215.478 249.9 215.639C248.474 215.8 247.696 216.596 246.27 216.757C244.844 216.919 244.844 216.919 242.769 216.446C240.694 215.973 239.268 216.135 237.321 214.233C235.375 212.33 235.503 210.901 233.428 210.428C231.353 209.956 228.758 207.419 228.887 205.99C229.016 206.117 229.665 206.751 230.442 205.955ZM170.039 263.873C167.187 264.195 165.112 263.723 163.685 263.884C162.259 264.046 154.737 261.36 152.014 261.809C149.162 262.132 146.438 261.025 143.065 259.285C139.692 257.544 133.591 248.471 133.071 246.407C132.55 244.344 132.679 242.914 132.03 242.28C131.381 241.646 129.692 236.885 131.503 232.435C133.315 227.985 132.795 225.921 134.998 224.965C137.202 224.008 139.405 223.051 138.757 222.417C138.108 221.783 139.014 219.558 139.791 218.762C140.568 217.967 145.104 214.623 146.787 211.603C148.47 208.583 148.079 205.089 148.079 205.089C148.079 205.089 148.39 204.771 148.7 204.453C149.97 202.894 152.924 199.872 155.44 200.153C158.941 200.464 162.962 202.839 162.834 204.268C162.705 205.698 166.47 210.932 169.584 213.975C172.828 217.146 176.983 224.316 178.93 226.218C180.876 228.12 186.715 232.271 187.106 235.764C187.498 239.257 185.821 250.059 185.199 250.695C185.044 250.854 184.888 251.014 184.603 251.046C184.162 251.237 183.747 251.143 183.645 252.286C183.516 253.716 182.739 254.511 181.184 256.102C179.604 257.979 172.891 263.55 170.039 263.873ZM228.021 226.605C224.263 229.153 220.248 234.56 219.626 235.196C218.849 235.992 206.695 247.13 205.918 247.926C205.14 248.721 203.714 248.883 202.159 250.474C200.605 252.065 196.069 255.408 195.292 256.203C194.514 256.999 191.142 255.258 189.844 253.99C188.546 252.722 188.797 242.081 189.184 239.349C189.441 236.49 190.218 235.695 188.921 234.426L183.73 229.354C183.081 228.72 184.507 228.558 183.21 227.29C181.912 226.022 179.837 225.55 180.743 223.325C181.649 221.1 187.225 221.884 183.852 220.143C183.048 219.668 197.337 219.324 198.736 217.892C200.291 216.301 203.4 213.119 204.826 212.958C206.252 212.797 206.901 213.431 208.456 211.84C210.011 210.249 212.992 208.496 213.769 207.701C214.546 206.905 220.9 206.894 224.273 208.635C227.645 210.375 232.706 215.321 233.226 217.385C233.591 219.607 231.78 224.057 228.021 226.605ZM232.092 258.264C229.24 258.587 223.07 261.266 218.921 261.877L218.636 261.91L210.079 262.878C207.226 263.201 203.725 262.89 203.076 262.256C202.428 261.622 203.854 261.46 201.779 260.988C199.704 260.515 200.481 259.72 200.481 259.72C200.481 259.72 201.907 259.558 202.036 258.129C202.164 256.699 203.848 253.679 206.18 251.292C207.112 250.338 209.937 247.188 213.201 243.847C218.021 238.915 223.307 233.506 224.552 233.79C225.797 234.073 226.499 235.692 227.276 234.896C228.053 234.101 228.182 232.671 228.831 233.305C229.479 233.939 232.981 234.251 233.501 236.314C234.021 238.378 232.467 239.969 233.764 241.237C235.062 242.505 236.623 248.696 235.588 252.35C235.226 253.24 235.175 253.812 234.993 254.257C234.58 255.719 234.605 255.433 232.998 256.039C230.795 256.996 234.945 257.941 232.092 258.264Z"
			fill="#54596B"
			fill-opacity="0.7"
		/>
		<path
			d="M255.805 200.258C253.108 200.422 250.333 199.887 247.506 199.924C245.406 199.737 243.279 199.836 241.153 199.936C238.171 200.132 235.111 201.185 232.129 201.381C229.847 201.64 227.591 201.612 225.491 201.425C223.805 201.333 221.834 201.273 220.148 201.181C218.177 201.121 215.817 200.681 215.426 198.744C215.348 198.045 215.425 197.187 215.477 196.616C215.812 194.455 216.122 192.581 216.457 190.42C216.715 189.118 216.974 187.815 217.362 186.639C217.905 185.304 218.578 184.096 219.252 182.888C219.588 182.283 219.951 181.393 220.287 180.789C217.933 188.131 216.409 195.661 216.722 196.899C217.242 198.963 220.743 199.274 221.392 199.908C222.041 200.542 223.467 200.381 224.893 200.219L229.172 199.735C230.598 199.574 234.099 199.885 239.804 199.239C245.509 198.594 254.456 199.562 255.882 199.4L256.168 199.368C255.857 199.686 255.831 199.972 255.805 200.258Z"
			fill="#918E9F"
			fill-opacity="0.2"
		/>
		<path
			d="M280.331 192.816C278.18 194.757 276.315 196.666 274.164 198.608C273.231 199.562 272.324 200.231 271.131 200.932C270.25 201.315 269.524 201.538 268.513 201.794C264.234 202.279 260.187 200.19 258.525 196.699C256.966 193.621 257.3 189.904 258.75 186.344C258.621 187.774 257.642 195.525 260.6 197.171C263.972 198.912 265.399 198.751 267.474 199.223C269.549 199.696 269.549 199.696 270.975 199.535C272.401 199.373 273.956 197.782 278.62 193.01C283.128 188.396 291.546 174.85 292.193 173.928C291.857 174.532 286.86 184.578 282.378 190.462C281.756 191.098 280.979 191.894 280.331 192.816Z"
			fill="#918E9F"
			fill-opacity="0.2"
		/>
		<path
			d="M265.09 137.797C263.638 138.244 260.839 139.551 258.194 140.699C258.194 140.699 258.194 140.699 258.039 140.859C253.347 142.805 248.603 145.322 243.677 146.729C242.666 146.985 241.369 147.273 240.591 146.512C240.201 146.132 240.123 145.433 240.045 144.735C240.095 142.607 240.145 140.478 240.195 138.35C240.376 137.905 240.402 137.619 240.532 137.746C241.181 138.38 240.666 144.098 241.964 145.366C243.262 146.634 242.613 146 244.039 145.839C245.465 145.678 247.669 144.721 252.076 142.807C255.913 140.958 262.472 138.659 265.09 137.797Z"
			fill="#918E9F"
			fill-opacity="0.2"
		/>
		<path
			d="M195.286 177.82C194.509 178.615 191.528 180.367 190.751 181.163C190.44 181.481 189.533 182.15 188.781 182.659C188.626 182.818 188.626 182.818 188.47 182.978C183.779 186.48 178.958 189.856 174.112 193.517C172.608 194.536 171.235 195.682 169.627 196.288C167.424 197.245 165.116 197.79 162.679 198.207C158.66 198.945 154.796 199.524 150.854 199.404C147.898 199.314 145.123 198.779 142.348 198.244C140.973 197.834 139.442 197.582 138.534 196.695C137.47 195.966 136.847 195.046 136.25 193.84C135.159 191.841 133.913 190.001 132.666 188.161C132.146 186.098 129.86 181.687 129.86 181.687C129.86 181.687 133.753 185.491 134.274 187.555C134.794 189.619 135.963 192.316 137.91 194.218C139.856 196.121 140.634 195.325 145.432 196.904C150.231 198.484 153.084 198.161 154.51 197.999L160.215 197.354C163.067 197.031 165.919 196.708 166.697 195.913C167.474 195.117 168.9 194.956 171.881 193.203C174.862 191.451 181.601 187.151 183.649 186.353C185.853 185.396 186.11 182.537 188.313 181.58C190.517 180.623 192.072 179.032 194.275 178.076C196.038 177.31 198.652 170.222 199.79 166.981C199.195 168.887 198.082 171.843 197.513 173.464C196.192 175.595 196.064 177.024 195.286 177.82Z"
			fill="#918E9F"
			fill-opacity="0.2"
		/>
		<path
			d="M175.592 263.39C171.212 266.574 165.895 266.044 161.149 265.449C157.803 264.979 154.587 264.635 151.397 264.006C149.296 263.819 147.221 263.346 145.302 262.715C141.488 261.165 138.944 258.057 136.556 254.79C135.31 252.95 134.193 251.237 133.258 249.079C132.322 246.921 131.854 244.285 130.477 242.319C129.854 241.399 129.076 240.638 128.608 239.559C128.036 238.067 128.191 236.352 128.63 234.604C129.147 231.999 129.689 229.107 131.451 226.785C132.254 225.704 133.472 224.717 134.404 223.763C136.426 221.694 138.083 218.96 140.104 216.892C141.685 215.015 143.81 213.359 145.39 211.482C147.126 209.446 148.032 207.221 148.108 204.807C148.263 204.648 148.549 204.616 148.834 204.584C148.367 205.061 148.212 205.22 148.212 205.22C148.212 205.22 148.604 208.713 146.92 211.734C145.237 214.754 140.702 218.097 139.924 218.893C139.147 219.688 138.241 221.913 138.89 222.547C139.539 223.181 137.335 224.138 135.132 225.095C132.928 226.052 133.448 228.116 131.637 232.566C129.825 237.016 131.514 241.777 132.163 242.411C132.812 243.045 132.684 244.475 133.204 246.538C133.724 248.602 139.826 257.674 143.198 259.415C146.571 261.156 149.295 262.263 152.147 261.94C155 261.617 162.522 264.303 163.819 264.015C165.245 263.853 167.32 264.326 170.172 264.003C173.025 263.68 179.892 257.951 181.292 256.519C182.846 254.928 183.624 254.132 183.752 252.703C183.855 251.559 184.27 251.654 184.711 251.462C183.598 254.418 181.525 257.058 179.479 259.412C178.209 260.971 176.965 262.244 175.592 263.39Z"
			fill="#918E9F"
			fill-opacity="0.2"
		/>
		<path
			d="M120.825 235.063C119.478 235.923 117.87 236.53 116.289 236.85C107.188 239.154 98.1118 239.615 89.5792 238.741C86.8296 237.92 84.7803 237.162 84.4951 237.194C84.9101 237.289 91.4975 237.817 93.5725 238.289C95.6475 238.762 102.778 237.955 111.05 237.019C116.755 236.373 121.499 233.855 123.754 232.326C122.951 233.408 121.862 234.521 120.825 235.063Z"
			fill="#918E9F"
			fill-opacity="0.2"
		/>
		<path
			d="M153.123 273.15C150.738 274.552 148.094 275.7 145.71 277.102C144.362 277.962 143.014 278.822 141.64 279.968C139.541 281.338 137.441 282.707 135.212 283.95C125.413 287.748 111.36 291.744 110.219 291.873C108.793 292.034 124.583 287.559 133.267 283.604C142.081 279.777 145.164 275.324 147.367 274.368C149.285 273.443 156.75 268.919 158.305 267.328C158.72 267.423 159.005 267.39 159.005 267.39C157.944 269.774 155.663 271.589 153.123 273.15Z"
			fill="#918E9F"
			fill-opacity="0.2"
		/>
		<path
			d="M152.375 320.632C152.452 319.775 153.377 309.482 152.365 308.182C152.546 307.737 152.883 307.133 153.064 306.688C153.426 305.798 153.763 305.193 154.125 304.303C156.947 298.041 159.794 291.493 160.93 285.139C161.37 283.391 161.394 281.549 161.963 279.928C162.533 278.307 163.672 276.621 164.527 274.968C165.356 273.601 166.34 272.074 167.584 270.802C168.205 270.165 169.113 269.497 169.968 269.4C169.813 269.559 169.657 269.718 169.657 269.718C167.325 272.104 159.718 293.907 157.778 299.787C155.864 305.38 152.607 319.616 152.375 320.632Z"
			fill="#918E9F"
			fill-opacity="0.2"
		/>
		<path
			d="M213.197 267.483C207.363 269.558 203.504 274.806 202.726 275.601C201.949 276.397 201.692 279.256 199.36 281.642C197.028 284.029 196.514 289.747 195.608 291.972C194.702 294.197 191.721 295.949 192.498 295.154C193.276 294.358 192.627 293.724 191.201 293.886C190.915 293.918 190.215 293.856 189.385 293.667C190.241 293.57 191.097 293.473 191.823 293.249C193.43 292.643 194.57 290.957 195.294 289.177C195.864 287.556 196.148 285.968 196.587 284.22C198.396 276.657 204.407 269.468 211.899 266.215C213.817 265.29 215.84 264.778 217.732 264.14C220.636 263.245 223.54 262.35 226.444 261.456C230.073 260.337 233.859 259.06 237.15 256.99C238.057 256.321 238.783 256.097 239.043 256.351C238.447 256.701 236.373 257.785 233.366 259.823C229.634 262.085 218.874 265.567 213.197 267.483Z"
			fill="#918E9F"
			fill-opacity="0.2"
		/>
		<path
			d="M242.388 255.266C240.002 255.112 237.486 254.83 235.126 254.39L234.996 254.263C235.177 253.818 235.229 253.246 235.591 252.356C236.626 248.702 235.065 242.511 233.767 241.243C232.469 239.975 234.024 238.384 233.504 236.32C232.983 234.257 229.482 233.946 228.833 233.311C228.988 231.596 230.127 229.911 231.371 228.638C231.837 228.161 232.589 227.651 233.185 227.3C232.719 227.778 232.252 228.255 232.071 228.7C230.388 231.721 230.388 231.721 231.037 232.355C231.686 232.989 234.41 234.095 235.45 238.222C236.491 242.35 237.66 245.047 238.18 247.111C238.701 249.174 239.741 253.302 241.039 254.57C241.013 254.856 241.558 255.077 242.388 255.266Z"
			fill="#918E9F"
			fill-opacity="0.2"
		/>
		<path
			d="M218.928 261.884C216.569 263 214.105 263.703 211.928 264.374C209.309 265.237 206.716 265.813 204.045 265.691C201.504 265.696 199.091 264.271 198.311 261.954C198.337 261.668 198.077 261.414 198.103 261.128C198.154 260.556 198.335 260.111 198.646 259.793C199.526 257.854 200.692 255.883 202.117 254.165C204.008 251.97 206.548 250.409 208.569 248.341C209.658 247.227 211.16 244.652 212.767 244.045C212.923 243.886 213.052 244.013 213.208 243.854C209.943 247.195 207.119 250.344 206.186 251.299C203.854 253.685 202.171 256.706 202.042 258.135C201.914 259.565 200.487 259.726 200.487 259.726C200.487 259.726 199.71 260.522 201.785 260.994C203.86 261.467 202.434 261.628 203.083 262.262C203.732 262.897 207.233 263.208 210.085 262.885L218.642 261.916C218.642 261.916 218.772 262.043 218.928 261.884Z"
			fill="#918E9F"
			fill-opacity="0.2"
		/>
		<path
			d="M287.328 223.292C285.823 222.754 279.675 220.479 275.421 219.121C273.502 218.489 271.557 218.143 269.897 217.765C267.717 216.88 265.227 216.313 263.23 214.982C262.425 214.507 261.517 213.62 261.62 212.476C261.697 211.618 262.63 210.664 263.251 210.027C265.402 208.086 267.709 205.985 269.989 204.171C270.896 203.502 271.829 202.548 272.892 201.72C270.845 204.074 269.109 206.11 268.021 207.224C265.689 209.61 265.56 211.04 265.56 211.04C265.56 211.04 263.228 213.426 264.526 214.694C265.824 215.962 268.027 215.005 273.475 217.219C278.378 219.211 285.849 222.469 287.328 223.292Z"
			fill="#918E9F"
			fill-opacity="0.2"
		/>
		<path
			d="M254.396 214.426C253.955 214.617 253.515 214.808 253.074 215C252.918 215.159 252.607 215.477 252.296 215.795C251.078 216.782 249.782 217.07 248.486 217.358C247.189 217.647 245.763 217.808 244.492 217.81C242.521 217.75 240.732 217.246 238.942 216.741C238.112 216.552 237.152 216.236 236.477 215.888C235.673 215.413 235.024 214.779 234.22 214.304C231.599 212.053 229.133 209.644 226.823 207.075C229.338 205.8 231.852 204.525 234.626 203.504C232.993 204.396 231.205 205.448 230.583 206.084C229.805 206.879 229.157 206.245 229.157 206.245C229.028 207.675 231.623 210.211 233.698 210.684C235.773 211.156 235.645 212.586 237.591 214.488C239.538 216.39 240.964 216.229 243.039 216.701C245.114 217.174 245.114 217.174 246.54 217.013C247.966 216.851 248.744 216.056 250.17 215.894C251.596 215.733 251.725 214.303 252.502 213.508C253.279 212.712 254.706 212.551 255.354 213.185C255.874 213.692 257.247 212.546 259.217 211.05C257.688 212.355 256.159 213.66 254.396 214.426Z"
			fill="#918E9F"
			fill-opacity="0.2"
		/>
	</svg>
