	<svg
		width="326"
		height="578"
		viewBox="0 0 326 578"
		fill="none"
		xmlns="http://www.w3.org/2000/svg"
	>
		<path
			d="M78.8479 383.512C78.3021 383.596 77.9276 384.106 78.0116 384.652C78.0956 385.198 78.6062 385.572 79.1521 385.488L78.8479 383.512ZM301.38 215.025C301.117 214.539 300.511 214.358 300.025 214.62L292.106 218.898C291.62 219.16 291.439 219.767 291.702 220.253C291.964 220.739 292.571 220.92 293.057 220.658L300.095 216.855L303.898 223.894C304.16 224.38 304.767 224.561 305.253 224.298C305.739 224.036 305.92 223.429 305.658 222.943L301.38 215.025ZM80.1606 385.333C80.7064 385.249 81.0808 384.738 80.9967 384.193C80.9126 383.647 80.4019 383.272 79.8561 383.356L80.1606 385.333ZM91.6718 381.52C91.1262 381.605 90.7534 382.117 90.8391 382.663C90.9248 383.208 91.4366 383.581 91.9822 383.495L91.6718 381.52ZM93.9296 383.189C94.4751 383.103 94.8476 382.591 94.7615 382.045C94.6755 381.5 94.1635 381.127 93.6179 381.213L93.9296 383.189ZM105.429 379.322C104.884 379.411 104.514 379.925 104.603 380.47C104.691 381.015 105.205 381.385 105.75 381.296L105.429 379.322ZM107.708 380.977C108.253 380.888 108.622 380.373 108.533 379.828C108.444 379.283 107.93 378.914 107.385 379.003L107.708 380.977ZM119.151 377.035C118.607 377.128 118.241 377.645 118.334 378.189C118.427 378.734 118.944 379.1 119.489 379.006L119.151 377.035ZM121.487 378.663C122.031 378.569 122.396 378.051 122.302 377.507C122.208 376.963 121.691 376.598 121.146 376.692L121.487 378.663ZM132.895 374.603C132.352 374.702 131.992 375.223 132.092 375.767C132.192 376.31 132.713 376.669 133.256 376.57L132.895 374.603ZM135.248 376.202C135.791 376.101 136.149 375.579 136.049 375.036C135.948 374.493 135.426 374.135 134.883 374.236L135.248 376.202ZM146.603 371.973C146.062 372.081 145.711 372.609 145.82 373.15C145.929 373.692 146.456 374.042 146.998 373.933L146.603 371.973ZM148.961 373.535C149.502 373.425 149.851 372.897 149.74 372.355C149.63 371.814 149.101 371.465 148.56 371.576L148.961 373.535ZM160.215 369.074C159.677 369.196 159.339 369.731 159.461 370.27C159.582 370.809 160.118 371.147 160.656 371.025L160.215 369.074ZM162.579 370.586C163.117 370.462 163.453 369.926 163.329 369.388C163.205 368.849 162.668 368.513 162.13 368.637L162.579 370.586ZM173.673 365.811C173.139 365.951 172.818 366.497 172.958 367.031C173.097 367.566 173.644 367.886 174.178 367.747L173.673 365.811ZM176.147 367.227C176.681 367.084 176.998 366.536 176.855 366.003C176.713 365.469 176.165 365.152 175.631 365.295L176.147 367.227ZM187.09 361.999C186.562 362.163 186.268 362.723 186.431 363.251C186.595 363.778 187.155 364.073 187.683 363.909L187.09 361.999ZM189.578 363.313C190.104 363.146 190.394 362.583 190.227 362.057C190.059 361.531 189.496 361.24 188.97 361.408L189.578 363.313ZM200.186 357.509C199.67 357.705 199.41 358.282 199.606 358.799C199.802 359.315 200.379 359.575 200.896 359.379L200.186 357.509ZM202.783 358.651C203.298 358.449 203.551 357.869 203.35 357.355C203.148 356.84 202.568 356.587 202.054 356.788L202.783 358.651ZM212.932 352.085C212.434 352.323 212.223 352.92 212.461 353.418C212.699 353.917 213.296 354.128 213.794 353.89L212.932 352.085ZM215.597 353.014C216.092 352.769 216.295 352.17 216.05 351.674C215.805 351.179 215.206 350.976 214.71 351.221L215.597 353.014ZM225.099 345.5C224.628 345.788 224.481 346.404 224.77 346.875C225.058 347.346 225.674 347.493 226.145 347.204L225.099 345.5ZM227.834 346.149C228.3 345.852 228.437 345.234 228.14 344.768C227.844 344.302 227.226 344.165 226.76 344.462L227.834 346.149ZM236.407 337.587C235.975 337.931 235.904 338.56 236.248 338.992C236.592 339.424 237.222 339.495 237.653 339.151L236.407 337.587ZM239.211 337.886C239.636 337.534 239.696 336.903 239.344 336.478C238.991 336.052 238.361 335.993 237.936 336.345L239.211 337.886ZM246.617 328.315C246.233 328.712 246.243 329.345 246.64 329.729C247.036 330.113 247.669 330.104 248.054 329.707L246.617 328.315ZM249.443 328.247C249.821 327.843 249.799 327.21 249.396 326.833C248.992 326.456 248.36 326.477 247.982 326.881L249.443 328.247ZM255.604 317.84C255.269 318.279 255.354 318.907 255.793 319.242C256.232 319.576 256.86 319.491 257.195 319.052L255.604 317.84ZM258.404 317.439C258.732 316.994 258.638 316.368 258.193 316.041C257.749 315.713 257.123 315.807 256.795 316.252L258.404 317.439ZM263.411 306.425C263.121 306.895 263.267 307.511 263.737 307.801C264.208 308.091 264.824 307.944 265.113 307.474L263.411 306.425ZM266.153 305.764C266.436 305.29 266.283 304.676 265.809 304.392C265.335 304.108 264.721 304.262 264.437 304.736L266.153 305.764ZM270.214 294.313C269.962 294.804 270.155 295.407 270.646 295.66C271.137 295.912 271.74 295.719 271.993 295.228L270.214 294.313ZM272.884 293.474C273.132 292.981 272.933 292.38 272.44 292.132C271.947 291.883 271.345 292.082 271.097 292.576L272.884 293.474ZM276.165 281.824C275.941 282.329 276.169 282.92 276.674 283.144C277.179 283.368 277.77 283.14 277.994 282.635L276.165 281.824ZM278.806 280.785C279.026 280.279 278.794 279.69 278.287 279.469C277.781 279.249 277.192 279.481 276.972 279.988L278.806 280.785ZM281.526 268.954C281.324 269.468 281.577 270.049 282.091 270.251C282.605 270.453 283.186 270.2 283.387 269.686L281.526 268.954ZM284.099 267.86C284.299 267.345 284.043 266.766 283.528 266.567C283.013 266.367 282.433 266.623 282.234 267.138L284.099 267.86ZM286.379 255.978C286.193 256.498 286.464 257.07 286.984 257.256C287.504 257.442 288.077 257.171 288.262 256.651L286.379 255.978ZM288.929 254.772C289.113 254.251 288.84 253.68 288.319 253.496C287.798 253.312 287.227 253.585 287.043 254.106L288.929 254.772ZM290.901 242.815C290.727 243.339 291.011 243.905 291.536 244.079C292.06 244.253 292.626 243.969 292.799 243.444L290.901 242.815ZM293.432 241.526C293.604 241.001 293.319 240.436 292.794 240.264C292.269 240.092 291.704 240.377 291.532 240.902L293.432 241.526ZM295.171 229.536C295.006 230.064 295.299 230.625 295.826 230.789C296.354 230.954 296.915 230.661 297.079 230.133L295.171 229.536ZM297.686 228.188C297.849 227.66 297.555 227.1 297.027 226.936C296.5 226.772 295.939 227.067 295.776 227.595L297.686 228.188ZM299.25 216.192C299.091 216.721 299.392 217.278 299.921 217.436C300.45 217.595 301.007 217.294 301.166 216.765L299.25 216.192ZM79.1521 385.488C79.4888 385.437 79.825 385.385 80.1606 385.333L79.8561 383.356C79.5206 383.408 79.1846 383.46 78.8479 383.512L79.1521 385.488ZM91.9822 383.495C92.6337 383.393 93.2829 383.291 93.9296 383.189L93.6179 381.213C92.9716 381.315 92.3229 381.417 91.6718 381.52L91.9822 383.495ZM105.75 381.296C106.405 381.19 107.058 381.083 107.708 380.977L107.385 379.003C106.735 379.109 106.084 379.216 105.429 379.322L105.75 381.296ZM119.489 379.006C120.158 378.892 120.824 378.777 121.487 378.663L121.146 376.692C120.484 376.806 119.819 376.921 119.151 377.035L119.489 379.006ZM133.256 376.57C133.923 376.447 134.587 376.325 135.248 376.202L134.883 374.236C134.223 374.358 133.561 374.48 132.895 374.603L133.256 376.57ZM146.998 373.933C147.655 373.801 148.31 373.668 148.961 373.535L148.56 371.576C147.911 371.708 147.259 371.841 146.603 371.973L146.998 373.933ZM160.656 371.025C161.301 370.879 161.942 370.733 162.579 370.586L162.13 368.637C161.495 368.784 160.857 368.929 160.215 369.074L160.656 371.025ZM174.178 367.747C174.838 367.574 175.495 367.401 176.147 367.227L175.631 365.295C174.983 365.468 174.33 365.64 173.673 365.811L174.178 367.747ZM187.683 363.909C188.318 363.712 188.95 363.513 189.578 363.313L188.97 361.408C188.348 361.606 187.721 361.803 187.09 361.999L187.683 363.909ZM200.896 359.379C201.53 359.138 202.159 358.895 202.783 358.651L202.054 356.788C201.436 357.031 200.813 357.271 200.186 357.509L200.896 359.379ZM213.794 353.89C214.4 353.601 215.001 353.309 215.597 353.014L214.71 351.221C214.122 351.512 213.53 351.8 212.932 352.085L213.794 353.89ZM226.145 347.204C226.712 346.856 227.275 346.504 227.834 346.149L226.76 344.462C226.211 344.811 225.657 345.157 225.099 345.5L226.145 347.204ZM237.653 339.151C238.177 338.734 238.696 338.312 239.211 337.886L237.936 336.345C237.43 336.763 236.921 337.177 236.407 337.587L237.653 339.151ZM248.054 329.707C248.52 329.225 248.984 328.739 249.443 328.247L247.982 326.881C247.531 327.364 247.076 327.842 246.617 328.315L248.054 329.707ZM257.195 319.052C257.6 318.52 258.004 317.982 258.404 317.439L256.795 316.252C256.4 316.786 256.003 317.316 255.604 317.84L257.195 319.052ZM265.113 307.474C265.462 306.909 265.808 306.339 266.153 305.764L264.437 304.736C264.097 305.304 263.754 305.867 263.411 306.425L265.113 307.474ZM271.993 295.228C272.291 294.648 272.588 294.063 272.884 293.474L271.097 292.576C270.804 293.16 270.51 293.739 270.214 294.313L271.993 295.228ZM277.994 282.635C278.265 282.023 278.536 281.406 278.806 280.785L276.972 279.988C276.703 280.604 276.435 281.216 276.165 281.824L277.994 282.635ZM283.387 269.686C283.625 269.081 283.862 268.472 284.099 267.86L282.234 267.138C281.998 267.747 281.762 268.353 281.526 268.954L283.387 269.686ZM288.262 256.651C288.485 256.028 288.707 255.402 288.929 254.772L287.043 254.106C286.822 254.734 286.6 255.358 286.379 255.978L288.262 256.651ZM292.799 243.444C293.01 242.808 293.221 242.169 293.432 241.526L291.532 240.902C291.321 241.543 291.111 242.181 290.901 242.815L292.799 243.444ZM297.079 230.133C297.281 229.488 297.483 228.839 297.686 228.188L295.776 227.595C295.574 228.245 295.372 228.892 295.171 229.536L297.079 230.133ZM301.166 216.765C301.263 216.44 301.361 216.113 301.458 215.786L299.542 215.214C299.444 215.541 299.347 215.866 299.25 216.192L301.166 216.765ZM78.6959 382.523C77.6042 382.691 76.8553 383.712 77.0233 384.804C77.1912 385.896 78.2124 386.645 79.3041 386.477L78.6959 382.523ZM302.26 214.549C301.735 213.578 300.521 213.215 299.549 213.74L283.713 222.296C282.741 222.821 282.379 224.034 282.904 225.006C283.429 225.978 284.642 226.34 285.614 225.815L299.691 218.21L307.296 232.287C307.821 233.259 309.034 233.621 310.006 233.096C310.978 232.571 311.34 231.358 310.815 230.386L302.26 214.549ZM80.3128 386.321C81.4045 386.153 82.1532 385.132 81.985 384.04C81.8168 382.949 80.7955 382.2 79.7038 382.368L80.3128 386.321ZM91.5165 380.532C90.4254 380.703 89.6798 381.727 89.8512 382.818C90.0227 383.909 91.0462 384.655 92.1374 384.483L91.5165 380.532ZM94.0854 384.176C95.1765 384.004 95.9214 382.98 95.7493 381.889C95.5772 380.798 94.5532 380.053 93.4621 380.225L94.0854 384.176ZM105.268 378.335C104.178 378.513 103.438 379.54 103.616 380.631C103.793 381.721 104.821 382.461 105.911 382.283L105.268 378.335ZM107.869 381.964C108.959 381.785 109.698 380.757 109.52 379.667C109.341 378.577 108.313 377.838 107.223 378.016L107.869 381.964ZM118.982 376.049C117.894 376.236 117.162 377.269 117.349 378.358C117.535 379.447 118.569 380.178 119.657 379.992L118.982 376.049ZM121.657 379.648C122.745 379.46 123.475 378.425 123.287 377.337C123.099 376.249 122.065 375.519 120.976 375.707L121.657 379.648ZM132.715 373.619C131.628 373.818 130.909 374.861 131.108 375.947C131.308 377.034 132.35 377.753 133.437 377.553L132.715 373.619ZM135.431 377.185C136.517 376.983 137.233 375.939 137.032 374.853C136.83 373.767 135.786 373.051 134.7 373.252L135.431 377.185ZM146.406 370.992C145.323 371.21 144.622 372.264 144.84 373.347C145.058 374.43 146.112 375.131 147.195 374.914L146.406 370.992ZM149.161 374.515C150.243 374.294 150.941 373.238 150.72 372.155C150.499 371.073 149.442 370.375 148.36 370.596L149.161 374.515ZM159.995 368.099C158.918 368.342 158.242 369.413 158.485 370.491C158.729 371.568 159.8 372.244 160.877 372L159.995 368.099ZM162.803 371.561C163.88 371.313 164.551 370.239 164.304 369.163C164.056 368.087 162.982 367.415 161.906 367.663L162.803 371.561ZM173.421 364.844C172.352 365.123 171.711 366.215 171.99 367.284C172.269 368.353 173.362 368.993 174.43 368.714L173.421 364.844ZM176.405 368.193C177.472 367.908 178.107 366.812 177.822 365.745C177.537 364.677 176.44 364.043 175.373 364.328L176.405 368.193ZM186.793 361.044C185.739 361.372 185.149 362.492 185.476 363.547C185.803 364.602 186.924 365.192 187.979 364.864L186.793 361.044ZM189.881 364.266C190.934 363.931 191.515 362.806 191.179 361.753C190.844 360.701 189.719 360.12 188.666 360.455L189.881 364.266ZM199.831 356.574C198.798 356.966 198.279 358.121 198.671 359.154C199.063 360.186 200.218 360.706 201.251 360.314L199.831 356.574ZM203.148 359.582C204.177 359.179 204.684 358.018 204.281 356.99C203.878 355.961 202.717 355.454 201.689 355.857L203.148 359.582ZM212.502 351.183C211.505 351.659 211.083 352.852 211.558 353.849C212.034 354.846 213.228 355.268 214.225 354.792L212.502 351.183ZM216.04 353.91C217.03 353.421 217.436 352.221 216.947 351.231C216.457 350.241 215.258 349.835 214.267 350.325L216.04 353.91ZM224.576 344.647C223.635 345.225 223.34 346.457 223.917 347.398C224.495 348.339 225.727 348.634 226.668 348.057L224.576 344.647ZM228.371 346.993C229.302 346.399 229.577 345.163 228.984 344.231C228.391 343.3 227.155 343.025 226.223 343.618L228.371 346.993ZM235.784 336.805C234.92 337.493 234.778 338.752 235.466 339.615C236.155 340.479 237.413 340.621 238.277 339.933L235.784 336.805ZM239.848 338.656C240.699 337.952 240.818 336.691 240.114 335.84C239.41 334.989 238.149 334.87 237.298 335.575L239.848 338.656ZM245.899 327.619C245.131 328.412 245.15 329.679 245.944 330.447C246.737 331.216 248.003 331.196 248.772 330.403L245.899 327.619ZM250.174 328.93C250.928 328.123 250.886 326.857 250.079 326.103C249.272 325.348 248.006 325.391 247.252 326.198L250.174 328.93ZM254.808 317.234C254.139 318.112 254.308 319.367 255.187 320.037C256.066 320.706 257.321 320.537 257.99 319.658L254.808 317.234ZM259.209 318.033C259.865 317.144 259.676 315.892 258.787 315.236C257.898 314.58 256.646 314.769 255.99 315.658L259.209 318.033ZM262.559 305.9C261.98 306.841 262.272 308.073 263.213 308.652C264.153 309.232 265.385 308.939 265.965 307.999L262.559 305.9ZM267.01 306.278C267.578 305.331 267.27 304.102 266.323 303.534C265.375 302.967 264.147 303.274 263.579 304.222L267.01 306.278ZM269.325 293.856C268.82 294.838 269.207 296.044 270.189 296.549C271.171 297.054 272.377 296.667 272.882 295.685L269.325 293.856ZM273.778 293.923C274.274 292.936 273.876 291.734 272.889 291.238C271.902 290.742 270.7 291.14 270.204 292.127L273.778 293.923ZM275.251 281.419C274.803 282.429 275.259 283.61 276.269 284.058C277.279 284.506 278.46 284.05 278.908 283.04L275.251 281.419ZM279.723 281.184C280.163 280.171 279.699 278.993 278.686 278.552C277.673 278.112 276.495 278.576 276.054 279.589L279.723 281.184ZM280.595 268.589C280.191 269.617 280.697 270.778 281.725 271.181C282.754 271.585 283.914 271.079 284.318 270.051L280.595 268.589ZM285.032 268.221C285.431 267.191 284.919 266.033 283.889 265.634C282.859 265.235 281.7 265.747 281.302 266.777L285.032 268.221ZM285.437 255.641C285.066 256.682 285.608 257.826 286.648 258.198C287.688 258.569 288.833 258.027 289.204 256.987L285.437 255.641ZM289.872 255.105C290.24 254.063 289.694 252.921 288.652 252.553C287.61 252.185 286.468 252.732 286.1 253.773L289.872 255.105ZM289.952 242.501C289.604 243.549 290.172 244.681 291.221 245.028C292.269 245.376 293.401 244.807 293.749 243.759L289.952 242.501ZM294.382 241.838C294.727 240.788 294.155 239.658 293.106 239.314C292.056 238.969 290.926 239.541 290.582 240.59L294.382 241.838ZM294.216 229.238C293.886 230.292 294.474 231.414 295.528 231.744C296.582 232.074 297.704 231.486 298.034 230.432L294.216 229.238ZM298.641 228.484C298.968 227.429 298.379 226.309 297.324 225.981C296.269 225.653 295.148 226.243 294.821 227.298L298.641 228.484ZM298.292 215.905C297.975 216.963 298.576 218.078 299.634 218.394C300.692 218.711 301.807 218.11 302.124 217.052L298.292 215.905ZM79.3041 386.477C79.641 386.425 79.9772 386.373 80.3128 386.321L79.7038 382.368C79.3685 382.42 79.0325 382.471 78.6959 382.523L79.3041 386.477ZM92.1374 384.483C92.7891 384.381 93.4385 384.279 94.0854 384.176L93.4621 380.225C92.816 380.327 92.1675 380.429 91.5165 380.532L92.1374 384.483ZM105.911 382.283C106.566 382.177 107.219 382.07 107.869 381.964L107.223 378.016C106.574 378.122 105.923 378.229 105.268 378.335L105.911 382.283ZM119.657 379.992C120.327 379.877 120.993 379.763 121.657 379.648L120.976 375.707C120.315 375.821 119.65 375.935 118.982 376.049L119.657 379.992ZM133.437 377.553C134.104 377.431 134.769 377.308 135.431 377.185L134.7 373.252C134.041 373.375 133.38 373.497 132.715 373.619L133.437 377.553ZM147.195 374.914C147.854 374.781 148.509 374.648 149.161 374.515L148.36 370.596C147.712 370.728 147.061 370.86 146.406 370.992L147.195 374.914ZM160.877 372C161.523 371.855 162.165 371.708 162.803 371.561L161.906 367.663C161.272 367.809 160.635 367.954 159.995 368.099L160.877 372ZM174.43 368.714C175.093 368.541 175.751 368.368 176.405 368.193L175.373 364.328C174.727 364.501 174.076 364.673 173.421 364.844L174.43 368.714ZM187.979 364.864C188.617 364.666 189.251 364.467 189.881 364.266L188.666 360.455C188.046 360.653 187.422 360.849 186.793 361.044L187.979 364.864ZM201.251 360.314C201.888 360.072 202.52 359.828 203.148 359.582L201.689 355.857C201.074 356.098 200.455 356.337 199.831 356.574L201.251 360.314ZM214.225 354.792C214.835 354.501 215.44 354.207 216.04 353.91L214.267 350.325C213.683 350.613 213.095 350.899 212.502 351.183L214.225 354.792ZM226.668 348.057C227.24 347.706 227.808 347.351 228.371 346.993L226.223 343.618C225.678 343.965 225.129 344.308 224.576 344.647L226.668 348.057ZM238.277 339.933C238.805 339.512 239.329 339.086 239.848 338.656L237.298 335.575C236.797 335.989 236.292 336.399 235.784 336.805L238.277 339.933ZM248.772 330.403C249.243 329.917 249.71 329.426 250.174 328.93L247.252 326.198C246.804 326.677 246.353 327.15 245.899 327.619L248.772 330.403ZM257.99 319.658C258.399 319.122 258.805 318.58 259.209 318.033L255.99 315.658C255.599 316.189 255.205 316.714 254.808 317.234L257.99 319.658ZM265.965 307.999C266.315 307.43 266.664 306.856 267.01 306.278L263.579 304.222C263.241 304.786 262.901 305.346 262.559 305.9L265.965 307.999ZM272.882 295.685C273.182 295.102 273.48 294.515 273.778 293.923L270.204 292.127C269.912 292.708 269.619 293.284 269.325 293.856L272.882 295.685ZM278.908 283.04C279.18 282.426 279.452 281.807 279.723 281.184L276.054 279.589C275.787 280.203 275.519 280.813 275.251 281.419L278.908 283.04ZM284.318 270.051C284.556 269.445 284.794 268.835 285.032 268.221L281.302 266.777C281.066 267.385 280.831 267.989 280.595 268.589L284.318 270.051ZM289.204 256.987C289.427 256.363 289.65 255.736 289.872 255.105L286.1 253.773C285.879 254.4 285.658 255.022 285.437 255.641L289.204 256.987ZM293.749 243.759C293.96 243.122 294.171 242.481 294.382 241.838L290.582 240.59C290.372 241.23 290.162 241.867 289.952 242.501L293.749 243.759ZM298.034 230.432C298.236 229.786 298.438 229.137 298.641 228.484L294.821 227.298C294.619 227.948 294.417 228.594 294.216 229.238L298.034 230.432ZM302.124 217.052C302.221 216.726 302.319 216.399 302.416 216.072L298.584 214.928C298.486 215.254 298.389 215.58 298.292 215.905L302.124 217.052Z"
			fill="#7AE82F"
		/>
		<path
			d="M109.889 439.519C109.623 439.035 109.015 438.858 108.531 439.124C108.047 439.39 107.87 439.997 108.136 440.482L109.889 439.519ZM141.303 576.208C141.694 576.598 142.327 576.598 142.717 576.208L149.081 569.844C149.472 569.453 149.472 568.82 149.081 568.429C148.691 568.039 148.058 568.039 147.667 568.429L142.01 574.086L136.353 568.429C135.963 568.039 135.33 568.039 134.939 568.429C134.549 568.82 134.549 569.453 134.939 569.844L141.303 576.208ZM143.009 574.489C143.007 573.937 142.557 573.491 142.005 573.493C141.453 573.495 141.007 573.944 141.009 574.496L143.009 574.489ZM140.723 562.466C140.747 563.018 141.214 563.446 141.766 563.421C142.317 563.397 142.745 562.93 142.721 562.378L140.723 562.466ZM142.625 560.362C142.597 559.811 142.127 559.386 141.576 559.414C141.024 559.442 140.6 559.912 140.628 560.464L142.625 560.362ZM139.776 548.459C139.826 549.009 140.313 549.415 140.863 549.364C141.413 549.314 141.818 548.828 141.768 548.278L139.776 548.459ZM141.578 546.269C141.525 545.719 141.035 545.317 140.486 545.371C139.936 545.425 139.534 545.914 139.588 546.464L141.578 546.269ZM138.179 534.511C138.254 535.058 138.759 535.441 139.306 535.365C139.853 535.289 140.236 534.785 140.16 534.238L138.179 534.511ZM139.877 532.24C139.798 531.693 139.291 531.314 138.744 531.393C138.198 531.472 137.819 531.98 137.898 532.526L139.877 532.24ZM135.937 520.652C136.038 521.195 136.56 521.554 137.103 521.453C137.646 521.352 138.004 520.83 137.903 520.287L135.937 520.652ZM137.528 518.304C137.424 517.761 136.899 517.406 136.357 517.511C135.815 517.615 135.46 518.14 135.564 518.682L137.528 518.304ZM133.052 506.914C133.179 507.452 133.717 507.785 134.254 507.659C134.792 507.533 135.126 506.995 135 506.457L133.052 506.914ZM134.531 504.492C134.402 503.955 133.861 503.625 133.324 503.755C132.788 503.884 132.458 504.425 132.587 504.961L134.531 504.492ZM129.522 493.329C129.674 493.86 130.228 494.167 130.759 494.016C131.29 493.864 131.597 493.31 131.446 492.779L129.522 493.329ZM130.883 490.836C130.728 490.306 130.172 490.003 129.642 490.158C129.112 490.313 128.809 490.869 128.964 491.399L130.883 490.836ZM125.336 479.928C125.514 480.451 126.082 480.731 126.605 480.553C127.128 480.376 127.407 479.808 127.229 479.285L125.336 479.928ZM126.573 477.375C126.391 476.854 125.821 476.578 125.299 476.76C124.778 476.941 124.502 477.511 124.684 478.033L126.573 477.375ZM120.477 466.763C120.682 467.276 121.264 467.525 121.777 467.321C122.289 467.116 122.539 466.534 122.334 466.021L120.477 466.763ZM121.579 464.15C121.37 463.639 120.786 463.393 120.275 463.602C119.764 463.811 119.519 464.395 119.727 464.906L121.579 464.15ZM114.918 453.885C115.151 454.385 115.746 454.602 116.247 454.369C116.747 454.136 116.964 453.541 116.731 453.04L114.918 453.885ZM115.869 451.209C115.631 450.711 115.035 450.499 114.536 450.736C114.037 450.974 113.826 451.57 114.063 452.069L115.869 451.209ZM108.614 441.356C108.878 441.842 109.485 442.021 109.97 441.758C110.455 441.494 110.635 440.887 110.371 440.402L108.614 441.356ZM143.01 575.501C143.01 575.163 143.01 574.826 143.009 574.489L141.009 574.496C141.01 574.831 141.01 575.166 141.01 575.5L143.01 575.501ZM142.721 562.378C142.691 561.706 142.659 561.034 142.625 560.362L140.628 560.464C140.661 561.131 140.693 561.798 140.723 562.466L142.721 562.378ZM141.768 548.278C141.707 547.607 141.644 546.938 141.578 546.269L139.588 546.464C139.653 547.128 139.716 547.793 139.776 548.459L141.768 548.278ZM140.16 534.238C140.068 533.571 139.974 532.905 139.877 532.24L137.898 532.526C137.994 533.187 138.087 533.848 138.179 534.511L140.16 534.238ZM137.903 520.287C137.78 519.625 137.655 518.964 137.528 518.304L135.564 518.682C135.69 519.337 135.815 519.994 135.937 520.652L137.903 520.287ZM135 506.457C134.846 505.801 134.689 505.145 134.531 504.492L132.587 504.961C132.744 505.611 132.899 506.262 133.052 506.914L135 506.457ZM131.446 492.779C131.26 492.13 131.073 491.482 130.883 490.836L128.964 491.399C129.152 492.04 129.338 492.684 129.522 493.329L131.446 492.779ZM127.229 479.285C127.012 478.646 126.793 478.01 126.573 477.375L124.684 478.033C124.903 478.663 125.12 479.295 125.336 479.928L127.229 479.285ZM122.334 466.021C122.084 465.395 121.833 464.771 121.579 464.15L119.727 464.906C119.979 465.522 120.229 466.141 120.477 466.763L122.334 466.021ZM116.731 453.04C116.445 452.427 116.158 451.817 115.869 451.209L114.063 452.069C114.35 452.671 114.635 453.277 114.918 453.885L116.731 453.04ZM110.371 440.402C110.211 440.106 110.05 439.812 109.889 439.519L108.136 440.482C108.296 440.772 108.455 441.064 108.614 441.356L110.371 440.402ZM110.766 439.037C110.234 438.069 109.018 437.715 108.05 438.247C107.082 438.779 106.728 439.995 107.26 440.963L110.766 439.037ZM140.596 576.915C141.377 577.696 142.644 577.696 143.425 576.915L156.152 564.187C156.934 563.406 156.934 562.139 156.152 561.358C155.371 560.577 154.105 560.577 153.324 561.358L142.01 572.672L130.697 561.358C129.916 560.577 128.649 560.577 127.868 561.358C127.087 562.139 127.087 563.406 127.868 564.187L140.596 576.915ZM144.009 574.486C144.005 573.381 143.106 572.489 142.002 572.493C140.897 572.497 140.005 573.395 140.009 574.5L144.009 574.486ZM139.724 562.51C139.772 563.614 140.706 564.469 141.81 564.42C142.913 564.372 143.768 563.438 143.72 562.334L139.724 562.51ZM143.624 560.311C143.568 559.208 142.628 558.359 141.525 558.415C140.422 558.471 139.573 559.411 139.629 560.514L143.624 560.311ZM138.78 548.55C138.88 549.65 139.853 550.461 140.953 550.36C142.053 550.26 142.864 549.287 142.764 548.187L138.78 548.55ZM142.574 546.172C142.466 545.072 141.488 544.268 140.388 544.376C139.289 544.483 138.485 545.462 138.593 546.561L142.574 546.172ZM137.188 534.648C137.339 535.742 138.349 536.507 139.443 536.356C140.537 536.205 141.302 535.195 141.151 534.101L137.188 534.648ZM140.867 532.096C140.709 531.003 139.694 530.245 138.601 530.404C137.508 530.562 136.75 531.576 136.908 532.67L140.867 532.096ZM134.954 520.835C135.155 521.921 136.199 522.638 137.285 522.436C138.371 522.235 139.088 521.191 138.886 520.105L134.954 520.835ZM138.51 518.115C138.301 517.03 137.253 516.32 136.168 516.529C135.083 516.738 134.373 517.786 134.582 518.871L138.51 518.115ZM132.079 507.142C132.331 508.218 133.407 508.885 134.483 508.633C135.558 508.381 136.225 507.304 135.973 506.229L132.079 507.142ZM135.503 504.257C135.244 503.183 134.163 502.523 133.09 502.783C132.016 503.042 131.356 504.123 131.615 505.196L135.503 504.257ZM128.561 493.603C128.864 494.665 129.971 495.281 131.033 494.977C132.095 494.674 132.71 493.567 132.407 492.505L128.561 493.603ZM131.843 490.555C131.532 489.495 130.421 488.888 129.361 489.198C128.301 489.509 127.694 490.62 128.004 491.68L131.843 490.555ZM124.389 480.25C124.745 481.296 125.881 481.856 126.927 481.5C127.972 481.145 128.532 480.009 128.176 478.963L124.389 480.25ZM127.517 477.047C127.154 476.004 126.014 475.452 124.971 475.815C123.927 476.179 123.376 477.319 123.739 478.362L127.517 477.047ZM119.548 467.134C119.958 468.159 121.122 468.659 122.147 468.249C123.173 467.84 123.673 466.676 123.263 465.65L119.548 467.134ZM122.505 463.772C122.087 462.749 120.92 462.259 119.897 462.676C118.875 463.094 118.384 464.261 118.802 465.284L122.505 463.772ZM114.012 454.307C114.478 455.308 115.668 455.742 116.669 455.276C117.67 454.809 118.104 453.619 117.638 452.618L114.012 454.307ZM116.772 450.78C116.297 449.782 115.104 449.359 114.106 449.833C113.109 450.308 112.685 451.502 113.16 452.499L116.772 450.78ZM107.735 441.834C108.263 442.804 109.477 443.164 110.447 442.636C111.418 442.109 111.777 440.895 111.25 439.924L107.735 441.834ZM144.01 575.5C144.01 575.162 144.01 574.824 144.009 574.486L140.009 574.5C140.01 574.833 140.01 575.167 140.01 575.501L144.01 575.5ZM143.72 562.334C143.69 561.659 143.658 560.985 143.624 560.311L139.629 560.514C139.663 561.179 139.694 561.844 139.724 562.51L143.72 562.334ZM142.764 548.187C142.703 547.515 142.639 546.843 142.574 546.172L138.593 546.561C138.657 547.223 138.72 547.886 138.78 548.55L142.764 548.187ZM141.151 534.101C141.058 533.432 140.964 532.763 140.867 532.096L136.908 532.67C137.004 533.328 137.097 533.987 137.188 534.648L141.151 534.101ZM138.886 520.105C138.763 519.44 138.638 518.777 138.51 518.115L134.582 518.871C134.708 519.524 134.832 520.179 134.954 520.835L138.886 520.105ZM135.973 506.229C135.819 505.57 135.662 504.912 135.503 504.257L131.615 505.196C131.772 505.844 131.926 506.492 132.079 507.142L135.973 506.229ZM132.407 492.505C132.221 491.853 132.033 491.203 131.843 490.555L128.004 491.68C128.192 492.319 128.377 492.961 128.561 493.603L132.407 492.505ZM128.176 478.963C127.958 478.322 127.739 477.683 127.517 477.047L123.739 478.362C123.958 478.989 124.174 479.619 124.389 480.25L128.176 478.963ZM123.263 465.65C123.012 465.022 122.759 464.396 122.505 463.772L118.802 465.284C119.052 465.898 119.301 466.515 119.548 467.134L123.263 465.65ZM117.638 452.618C117.351 452.002 117.062 451.389 116.772 450.78L113.16 452.499C113.446 453.099 113.729 453.701 114.012 454.307L117.638 452.618ZM111.25 439.924C111.089 439.628 110.928 439.332 110.766 439.037L107.26 440.963C107.419 441.252 107.577 441.543 107.735 441.834L111.25 439.924Z"
			fill="#7AE82F"
		/>
		<path
			d="M239.366 400.725C239.793 400.376 240.423 400.439 240.773 400.867C241.122 401.295 241.059 401.925 240.631 402.274L239.366 400.725ZM174.174 576.234C173.769 576.608 173.136 576.583 172.761 576.178L166.653 569.568C166.278 569.162 166.303 568.529 166.709 568.155C167.115 567.78 167.747 567.805 168.122 568.21L173.551 574.086L179.427 568.657C179.833 568.282 180.465 568.307 180.84 568.713C181.215 569.118 181.19 569.751 180.784 570.126L174.174 576.234ZM172.538 574.521C172.565 573.969 173.034 573.544 173.586 573.571C174.138 573.598 174.563 574.067 174.536 574.619L172.538 574.521ZM175.616 563.128C175.545 563.675 175.043 564.062 174.496 563.991C173.948 563.92 173.561 563.419 173.632 562.871L175.616 563.128ZM173.886 560.976C173.962 560.429 174.467 560.047 175.014 560.122C175.561 560.198 175.943 560.703 175.868 561.25L173.886 560.976ZM177.713 549.844C177.614 550.387 177.093 550.747 176.55 550.648C176.006 550.549 175.646 550.028 175.745 549.485L177.713 549.844ZM176.103 547.556C176.206 547.013 176.729 546.656 177.271 546.759C177.814 546.861 178.171 547.384 178.069 547.927L176.103 547.556ZM180.393 536.6C180.274 537.139 179.741 537.48 179.201 537.361C178.662 537.241 178.321 536.708 178.441 536.168L180.393 536.6ZM178.861 534.284C178.983 533.746 179.518 533.407 180.057 533.529C180.595 533.651 180.934 534.186 180.812 534.725L178.861 534.284ZM183.51 523.462C183.374 523.997 182.83 524.321 182.295 524.186C181.759 524.051 181.435 523.507 181.571 522.971L183.51 523.462ZM182.046 521.107C182.184 520.572 182.729 520.25 183.264 520.388C183.799 520.525 184.121 521.071 183.983 521.605L182.046 521.107ZM187.003 510.423C186.853 510.955 186.3 511.264 185.769 511.113C185.237 510.963 184.928 510.411 185.079 509.879L187.003 510.423ZM185.607 508.023C185.76 507.492 186.313 507.186 186.844 507.338C187.375 507.49 187.682 508.044 187.53 508.575L185.607 508.023ZM190.853 497.482C190.689 498.009 190.128 498.303 189.601 498.138C189.074 497.973 188.78 497.413 188.945 496.885L190.853 497.482ZM189.525 495.041C189.692 494.515 190.254 494.223 190.78 494.39C191.307 494.557 191.598 495.119 191.431 495.645L189.525 495.041ZM195.06 484.654C194.881 485.176 194.312 485.454 193.789 485.274C193.267 485.095 192.989 484.526 193.169 484.003L195.06 484.654ZM193.803 482.173C193.984 481.651 194.555 481.376 195.076 481.557C195.598 481.739 195.873 482.309 195.691 482.831L193.803 482.173ZM199.641 471.959C199.446 472.476 198.869 472.736 198.352 472.54C197.836 472.345 197.575 471.767 197.771 471.251L199.641 471.959ZM198.464 469.436C198.662 468.92 199.24 468.663 199.756 468.861C200.271 469.059 200.529 469.637 200.33 470.153L198.464 469.436ZM204.637 459.426C204.423 459.935 203.837 460.175 203.328 459.961C202.818 459.747 202.579 459.161 202.793 458.652L204.637 459.426ZM203.551 456.858C203.768 456.35 204.355 456.114 204.863 456.331C205.371 456.547 205.608 457.135 205.391 457.643L203.551 456.858ZM210.109 447.101C209.873 447.601 209.278 447.816 208.778 447.581C208.278 447.345 208.064 446.75 208.299 446.25L210.109 447.101ZM209.137 444.485C209.375 443.987 209.973 443.776 210.471 444.015C210.969 444.253 211.179 444.851 210.941 445.349L209.137 444.485ZM216.161 435.054C215.899 435.54 215.292 435.722 214.806 435.46C214.32 435.199 214.138 434.592 214.399 434.106L216.161 435.054ZM215.333 432.39C215.599 431.906 216.207 431.729 216.691 431.996C217.175 432.262 217.351 432.87 217.085 433.354L215.333 432.39ZM222.949 423.423C222.652 423.889 222.034 424.026 221.568 423.729C221.103 423.432 220.965 422.814 221.262 422.348L222.949 423.423ZM222.314 420.72C222.617 420.258 223.237 420.129 223.699 420.432C224.161 420.735 224.29 421.354 223.987 421.816L222.314 420.72ZM230.71 412.507C230.364 412.938 229.734 413.006 229.304 412.66C228.874 412.314 228.806 411.684 229.152 411.254L230.71 412.507ZM230.403 409.73C230.758 409.307 231.389 409.252 231.812 409.607C232.235 409.962 232.29 410.593 231.935 411.016L230.403 409.73ZM239.919 402.866C239.498 403.224 238.867 403.172 238.51 402.751C238.153 402.329 238.205 401.698 238.626 401.341L239.919 402.866ZM172.496 575.46C172.508 575.151 172.522 574.837 172.538 574.521L174.536 574.619C174.52 574.93 174.507 575.236 174.495 575.539L172.496 575.46ZM173.632 562.871C173.713 562.247 173.798 561.615 173.886 560.976L175.868 561.25C175.78 561.884 175.696 562.51 175.616 563.128L173.632 562.871ZM175.745 549.485C175.862 548.847 175.981 548.204 176.103 547.556L178.069 547.927C177.947 548.571 177.829 549.21 177.713 549.844L175.745 549.485ZM178.441 536.168C178.579 535.543 178.719 534.915 178.861 534.284L180.812 534.725C180.67 535.353 180.531 535.978 180.393 536.6L178.441 536.168ZM181.571 522.971C181.727 522.352 181.886 521.73 182.046 521.107L183.983 521.605C183.824 522.226 183.666 522.845 183.51 523.462L181.571 522.971ZM185.079 509.879C185.253 509.261 185.429 508.643 185.607 508.023L187.53 508.575C187.353 509.192 187.177 509.808 187.003 510.423L185.079 509.879ZM188.945 496.885C189.137 496.271 189.33 495.656 189.525 495.041L191.431 495.645C191.237 496.258 191.045 496.87 190.853 497.482L188.945 496.885ZM193.169 484.003C193.379 483.393 193.59 482.782 193.803 482.173L195.691 482.831C195.48 483.438 195.269 484.046 195.06 484.654L193.169 484.003ZM197.771 471.251C198.001 470.645 198.232 470.04 198.464 469.436L200.33 470.153C200.1 470.754 199.87 471.356 199.641 471.959L197.771 471.251ZM202.793 458.652C203.044 458.052 203.297 457.454 203.551 456.858L205.391 457.643C205.138 458.235 204.887 458.83 204.637 459.426L202.793 458.652ZM208.299 446.25C208.577 445.659 208.856 445.07 209.137 444.485L210.941 445.349C210.662 445.93 210.385 446.514 210.109 447.101L208.299 446.25ZM214.399 434.106C214.709 433.53 215.021 432.958 215.333 432.39L217.085 433.354C216.776 433.916 216.468 434.483 216.161 435.054L214.399 434.106ZM221.262 422.348C221.612 421.8 221.962 421.257 222.314 420.72L223.987 421.816C223.64 422.346 223.294 422.881 222.949 423.423L221.262 422.348ZM229.152 411.254C229.568 410.737 229.985 410.229 230.403 409.73L231.935 411.016C231.526 411.504 231.117 412.001 230.71 412.507L229.152 411.254ZM238.626 401.341C238.872 401.132 239.119 400.927 239.366 400.725L240.631 402.274C240.393 402.468 240.156 402.665 239.919 402.866L238.626 401.341ZM238.733 399.951C239.588 399.252 240.848 399.379 241.547 400.234C242.246 401.09 242.119 402.35 241.263 403.049L238.733 399.951ZM174.853 576.968C174.042 577.718 172.776 577.668 172.027 576.856L159.811 563.636C159.061 562.825 159.111 561.56 159.922 560.81C160.734 560.06 161.999 560.11 162.749 560.922L173.607 572.673L185.358 561.814C186.17 561.065 187.435 561.115 188.185 561.926C188.934 562.737 188.884 564.003 188.073 564.752L174.853 576.968ZM171.539 574.472C171.593 573.368 172.532 572.518 173.635 572.572C174.738 572.626 175.589 573.565 175.534 574.668L171.539 574.472ZM176.608 563.256C176.466 564.352 175.463 565.125 174.367 564.983C173.272 564.841 172.499 563.838 172.641 562.743L176.608 563.256ZM172.896 560.839C173.047 559.744 174.057 558.98 175.151 559.132C176.246 559.283 177.01 560.293 176.858 561.387L172.896 560.839ZM178.697 550.023C178.498 551.11 177.457 551.83 176.37 551.632C175.283 551.433 174.563 550.392 174.762 549.305L178.697 550.023ZM175.121 547.371C175.325 546.285 176.371 545.571 177.457 545.776C178.542 545.981 179.256 547.027 179.051 548.112L175.121 547.371ZM181.37 536.815C181.132 537.894 180.064 538.575 178.986 538.337C177.907 538.099 177.226 537.031 177.464 535.953L181.37 536.815ZM177.886 534.064C178.129 532.987 179.199 532.31 180.277 532.554C181.354 532.797 182.031 533.867 181.788 534.945L177.886 534.064ZM184.479 523.707C184.208 524.778 183.12 525.426 182.05 525.156C180.979 524.885 180.33 523.797 180.601 522.726L184.479 523.707ZM181.078 520.858C181.353 519.788 182.443 519.144 183.513 519.419C184.583 519.695 185.227 520.785 184.952 521.855L181.078 520.858ZM187.965 510.695C187.665 511.758 186.559 512.376 185.497 512.076C184.434 511.775 183.816 510.67 184.116 509.607L187.965 510.695ZM184.646 507.747C184.951 506.686 186.058 506.072 187.12 506.377C188.182 506.681 188.795 507.789 188.491 508.851L184.646 507.747ZM191.808 497.78C191.479 498.834 190.357 499.422 189.303 499.093C188.248 498.763 187.661 497.641 187.99 496.587L191.808 497.78ZM188.571 494.739C188.905 493.686 190.029 493.103 191.082 493.437C192.135 493.77 192.718 494.894 192.385 495.947L188.571 494.739ZM196.006 484.979C195.647 486.023 194.509 486.579 193.464 486.22C192.42 485.861 191.864 484.723 192.223 483.678L196.006 484.979ZM192.858 481.843C193.222 480.8 194.362 480.25 195.405 480.613C196.448 480.977 196.999 482.117 196.635 483.16L192.858 481.843ZM200.577 472.313C200.185 473.346 199.031 473.867 197.998 473.475C196.965 473.084 196.445 471.93 196.836 470.897L200.577 472.313ZM197.53 469.077C197.926 468.046 199.083 467.531 200.114 467.927C201.145 468.323 201.66 469.48 201.264 470.512L197.53 469.077ZM205.559 459.813C205.131 460.831 203.959 461.311 202.941 460.883C201.922 460.456 201.443 459.283 201.87 458.265L205.559 459.813ZM202.631 456.466C203.064 455.45 204.239 454.978 205.255 455.411C206.271 455.844 206.744 457.019 206.311 458.035L202.631 456.466ZM211.013 447.527C210.543 448.527 209.352 448.956 208.352 448.485C207.353 448.015 206.924 446.824 207.394 445.824L211.013 447.527ZM208.235 444.053C208.712 443.057 209.906 442.636 210.903 443.113C211.899 443.59 212.32 444.784 211.842 445.781L208.235 444.053ZM217.041 435.527C216.518 436.5 215.305 436.864 214.332 436.341C213.36 435.817 212.995 434.605 213.519 433.632L217.041 435.527ZM214.457 431.908C214.989 430.94 216.205 430.587 217.173 431.119C218.141 431.652 218.494 432.868 217.962 433.836L214.457 431.908ZM223.792 423.96C223.199 424.892 221.963 425.166 221.031 424.572C220.099 423.979 219.825 422.742 220.419 421.811L223.792 423.96ZM221.478 420.172C222.083 419.248 223.323 418.99 224.247 419.595C225.171 420.201 225.429 421.441 224.823 422.364L221.478 420.172ZM231.489 413.134C230.797 413.995 229.538 414.131 228.677 413.439C227.817 412.747 227.68 411.488 228.372 410.627L231.489 413.134ZM229.637 409.087C230.347 408.241 231.609 408.131 232.455 408.841C233.301 409.551 233.411 410.813 232.701 411.659L229.637 409.087ZM240.566 403.629C239.724 404.343 238.462 404.24 237.747 403.397C237.033 402.555 237.136 401.293 237.979 400.578L240.566 403.629ZM171.497 575.42C171.509 575.108 171.523 574.791 171.539 574.472L175.534 574.668C175.519 574.976 175.506 575.279 175.494 575.578L171.497 575.42ZM172.641 562.743C172.722 562.116 172.807 561.481 172.896 560.839L176.858 561.387C176.771 562.018 176.687 562.641 176.608 563.256L172.641 562.743ZM174.762 549.305C174.878 548.665 174.998 548.02 175.121 547.371L179.051 548.112C178.93 548.754 178.812 549.391 178.697 550.023L174.762 549.305ZM177.464 535.953C177.602 535.326 177.743 534.697 177.886 534.064L181.788 534.945C181.646 535.571 181.507 536.195 181.37 536.815L177.464 535.953ZM180.601 522.726C180.758 522.105 180.917 521.482 181.078 520.858L184.952 521.855C184.792 522.474 184.635 523.091 184.479 523.707L180.601 522.726ZM184.116 509.607C184.291 508.988 184.468 508.368 184.646 507.747L188.491 508.851C188.314 509.467 188.139 510.081 187.965 510.695L184.116 509.607ZM187.99 496.587C188.182 495.971 188.376 495.355 188.571 494.739L192.385 495.947C192.191 496.558 191.999 497.169 191.808 497.78L187.99 496.587ZM192.223 483.678C192.434 483.066 192.645 482.455 192.858 481.843L196.635 483.16C196.424 483.766 196.214 484.372 196.006 484.979L192.223 483.678ZM196.836 470.897C197.066 470.289 197.297 469.682 197.53 469.077L201.264 470.512C201.034 471.111 200.805 471.712 200.577 472.313L196.836 470.897ZM201.87 458.265C202.123 457.663 202.376 457.064 202.631 456.466L206.311 458.035C206.059 458.626 205.808 459.218 205.559 459.813L201.87 458.265ZM207.394 445.824C207.673 445.231 207.953 444.64 208.235 444.053L211.842 445.781C211.565 446.36 211.289 446.942 211.013 447.527L207.394 445.824ZM213.519 433.632C213.83 433.053 214.143 432.479 214.457 431.908L217.962 433.836C217.654 434.395 217.347 434.959 217.041 435.527L213.519 433.632ZM220.419 421.811C220.771 421.259 221.124 420.712 221.478 420.172L224.823 422.364C224.479 422.89 224.135 423.422 223.792 423.96L220.419 421.811ZM228.372 410.627C228.793 410.105 229.214 409.591 229.637 409.087L232.701 411.659C232.296 412.141 231.892 412.633 231.489 413.134L228.372 410.627ZM237.979 400.578C238.23 400.366 238.481 400.156 238.733 399.951L241.263 403.049C241.031 403.238 240.799 403.432 240.566 403.629L237.979 400.578Z"
			fill="#7AE82F"
		/>
		<path
			d="M102 307.861C101.448 307.861 101 308.309 101 308.861C101 309.414 101.448 309.861 102 309.861V307.861ZM285.956 211.206C285.794 210.678 285.234 210.382 284.706 210.544L276.103 213.187C275.575 213.349 275.279 213.908 275.441 214.436C275.603 214.964 276.162 215.261 276.69 215.098L284.338 212.75L286.687 220.397C286.849 220.925 287.408 221.221 287.936 221.059C288.464 220.897 288.761 220.338 288.598 219.81L285.956 211.206ZM102.99 309.861C103.542 309.86 103.989 309.412 103.989 308.86C103.988 308.308 103.54 307.86 102.988 307.861L102.99 309.861ZM114.827 307.773C114.275 307.781 113.834 308.236 113.842 308.788C113.851 309.34 114.305 309.781 114.858 309.773L114.827 307.773ZM116.839 309.739C117.391 309.729 117.83 309.273 117.82 308.721C117.81 308.168 117.354 307.729 116.801 307.739L116.839 309.739ZM128.626 307.385C128.074 307.409 127.646 307.875 127.67 308.427C127.693 308.979 128.16 309.407 128.711 309.383L128.626 307.385ZM130.691 309.294C131.243 309.267 131.669 308.799 131.643 308.247C131.616 307.696 131.148 307.27 130.596 307.296L130.691 309.294ZM142.392 306.54C141.841 306.585 141.432 307.068 141.477 307.619C141.522 308.169 142.005 308.579 142.555 308.533L142.392 306.54ZM144.53 308.365C145.08 308.316 145.487 307.831 145.438 307.28C145.389 306.73 144.904 306.324 144.354 306.373L144.53 308.365ZM156.091 305.075C155.544 305.148 155.159 305.651 155.233 306.199C155.306 306.746 155.81 307.13 156.357 307.057L156.091 305.075ZM158.321 306.785C158.868 306.707 159.248 306.201 159.17 305.654C159.092 305.107 158.585 304.727 158.039 304.805L158.321 306.785ZM169.669 302.823C169.127 302.931 168.776 303.458 168.884 304C168.993 304.541 169.519 304.892 170.061 304.784L169.669 302.823ZM172.006 304.385C172.546 304.271 172.892 303.741 172.778 303.2C172.665 302.66 172.134 302.314 171.594 302.428L172.006 304.385ZM183.043 299.627C182.512 299.776 182.202 300.329 182.351 300.86C182.5 301.392 183.052 301.702 183.584 301.553L183.043 299.627ZM185.493 301.005C186.023 300.85 186.326 300.294 186.171 299.764C186.015 299.234 185.46 298.93 184.93 299.086L185.493 301.005ZM196.099 295.356C195.583 295.551 195.322 296.127 195.516 296.644C195.711 297.161 196.288 297.422 196.805 297.227L196.099 295.356ZM198.66 296.515C199.174 296.313 199.427 295.733 199.226 295.219C199.025 294.705 198.444 294.451 197.93 294.652L198.66 296.515ZM208.705 289.922C208.209 290.165 208.004 290.764 208.246 291.26C208.489 291.756 209.087 291.962 209.584 291.719L208.705 289.922ZM211.366 290.833C211.859 290.583 212.056 289.982 211.807 289.489C211.558 288.996 210.956 288.799 210.463 289.048L211.366 290.833ZM220.727 283.302C220.257 283.592 220.111 284.208 220.4 284.678C220.69 285.149 221.306 285.295 221.776 285.005L220.727 283.302ZM223.468 283.946C223.934 283.649 224.072 283.031 223.775 282.565C223.479 282.099 222.861 281.962 222.395 282.258L223.468 283.946ZM232.047 275.541C231.607 275.875 231.521 276.502 231.855 276.942C232.189 277.382 232.816 277.468 233.256 277.134L232.047 275.541ZM234.841 275.915C235.276 275.575 235.353 274.946 235.014 274.511C234.674 274.076 234.045 273.998 233.61 274.338L234.841 275.915ZM242.585 266.742C242.178 267.115 242.15 267.747 242.523 268.154C242.895 268.562 243.528 268.59 243.935 268.217L242.585 266.742ZM245.402 266.858C245.804 266.48 245.824 265.847 245.446 265.444C245.068 265.042 244.435 265.022 244.033 265.4L245.402 266.858ZM252.31 257.039C251.936 257.445 251.962 258.078 252.368 258.452C252.774 258.827 253.406 258.801 253.781 258.395L252.31 257.039ZM255.122 256.924C255.492 256.513 255.459 255.881 255.049 255.511C254.638 255.142 254.006 255.175 253.636 255.585L255.122 256.924ZM261.239 246.57C260.896 247.003 260.97 247.632 261.403 247.975C261.837 248.317 262.465 248.244 262.808 247.81L261.239 246.57ZM264.023 246.256C264.362 245.82 264.282 245.191 263.845 244.853C263.408 244.515 262.78 244.595 262.442 245.032L264.023 246.256ZM269.398 235.484C269.086 235.939 269.201 236.562 269.657 236.874C270.112 237.187 270.734 237.071 271.047 236.616L269.398 235.484ZM272.166 234.97C272.475 234.511 272.353 233.89 271.895 233.582C271.437 233.273 270.816 233.394 270.507 233.853L272.166 234.97ZM276.832 223.922C276.547 224.395 276.699 225.01 277.172 225.295C277.645 225.58 278.26 225.428 278.545 224.955L276.832 223.922ZM279.564 223.25C279.845 222.775 279.688 222.162 279.213 221.88C278.738 221.599 278.125 221.756 277.843 222.231L279.564 223.25ZM283.645 211.917C283.385 212.404 283.569 213.01 284.056 213.27C284.543 213.53 285.149 213.346 285.409 212.859L283.645 211.917ZM102 309.861C102.33 309.861 102.66 309.861 102.99 309.861L102.988 307.861C102.659 307.861 102.329 307.861 102 307.861V309.861ZM114.858 309.773C115.518 309.762 116.179 309.751 116.839 309.739L116.801 307.739C116.144 307.752 115.485 307.763 114.827 307.773L114.858 309.773ZM128.711 309.383C129.372 309.355 130.032 309.325 130.691 309.294L130.596 307.296C129.94 307.327 129.283 307.357 128.626 307.385L128.711 309.383ZM142.555 308.533C143.214 308.479 143.873 308.423 144.53 308.365L144.354 306.373C143.7 306.431 143.046 306.486 142.392 306.54L142.555 308.533ZM156.357 307.057C157.012 306.969 157.667 306.878 158.321 306.785L158.039 304.805C157.39 304.898 156.741 304.987 156.091 305.075L156.357 307.057ZM170.061 304.784C170.71 304.654 171.358 304.521 172.006 304.385L171.594 302.428C170.953 302.563 170.311 302.694 169.669 302.823L170.061 304.784ZM183.584 301.553C184.221 301.374 184.857 301.191 185.493 301.005L184.93 299.086C184.302 299.27 183.673 299.451 183.043 299.627L183.584 301.553ZM196.805 297.227C197.424 296.994 198.042 296.757 198.66 296.515L197.93 294.652C197.321 294.891 196.711 295.126 196.099 295.356L196.805 297.227ZM209.584 291.719C210.179 291.428 210.773 291.133 211.366 290.833L210.463 289.048C209.878 289.344 209.292 289.635 208.705 289.922L209.584 291.719ZM221.776 285.005C222.341 284.657 222.905 284.304 223.468 283.946L222.395 282.258C221.84 282.611 221.284 282.959 220.727 283.302L221.776 285.005ZM233.256 277.134C233.785 276.733 234.313 276.326 234.841 275.915L233.61 274.338C233.09 274.744 232.569 275.145 232.047 275.541L233.256 277.134ZM243.935 268.217C244.425 267.769 244.914 267.316 245.402 266.858L244.033 265.4C243.551 265.852 243.069 266.299 242.585 266.742L243.935 268.217ZM253.781 258.395C254.229 257.909 254.676 257.419 255.122 256.924L253.636 255.585C253.195 256.074 252.753 256.559 252.31 257.039L253.781 258.395ZM262.808 247.81C263.214 247.297 263.619 246.779 264.023 246.256L262.442 245.032C262.042 245.549 261.641 246.062 261.239 246.57L262.808 247.81ZM271.047 236.616C271.421 236.071 271.794 235.522 272.166 234.97L270.507 233.853C270.138 234.4 269.769 234.944 269.398 235.484L271.047 236.616ZM278.545 224.955C278.885 224.39 279.225 223.822 279.564 223.25L277.843 222.231C277.507 222.798 277.17 223.362 276.832 223.922L278.545 224.955ZM285.409 212.859C285.568 212.563 285.726 212.266 285.884 211.968L284.116 211.032C283.96 211.328 283.803 211.622 283.645 211.917L285.409 212.859ZM102 306.861C100.895 306.861 100 307.757 100 308.861C100 309.966 100.895 310.861 102 310.861V306.861ZM286.912 210.913C286.588 209.857 285.469 209.264 284.413 209.588L267.206 214.873C266.15 215.197 265.557 216.316 265.881 217.372C266.206 218.428 267.325 219.021 268.381 218.697L283.675 213.999L288.373 229.294C288.697 230.35 289.816 230.943 290.872 230.619C291.928 230.294 292.521 229.175 292.197 228.119L286.912 210.913ZM102.991 310.861C104.095 310.86 104.99 309.964 104.989 308.859C104.988 307.755 104.092 306.86 102.987 306.861L102.991 310.861ZM114.812 306.773C113.707 306.79 112.826 307.699 112.843 308.803C112.86 309.908 113.769 310.789 114.873 310.772L114.812 306.773ZM116.857 310.739C117.962 310.718 118.84 309.806 118.82 308.702C118.799 307.598 117.887 306.719 116.783 306.739L116.857 310.739ZM128.583 306.386C127.48 306.433 126.623 307.366 126.671 308.47C126.718 309.573 127.651 310.429 128.754 310.382L128.583 306.386ZM130.739 310.293C131.842 310.24 132.694 309.303 132.641 308.2C132.589 307.096 131.652 306.245 130.549 306.297L130.739 310.293ZM142.31 305.543C141.209 305.634 140.39 306.599 140.48 307.7C140.571 308.801 141.536 309.62 142.637 309.53L142.31 305.543ZM144.619 309.361C145.719 309.263 146.532 308.292 146.434 307.192C146.337 306.092 145.366 305.279 144.265 305.377L144.619 309.361ZM155.958 304.084C154.863 304.23 154.095 305.237 154.242 306.332C154.389 307.426 155.395 308.195 156.49 308.048L155.958 304.084ZM158.462 307.775C159.556 307.619 160.316 306.606 160.16 305.513C160.004 304.419 158.991 303.659 157.897 303.815L158.462 307.775ZM169.473 301.842C168.39 302.059 167.687 303.113 167.904 304.196C168.12 305.279 169.174 305.981 170.257 305.765L169.473 301.842ZM172.212 305.363C173.293 305.136 173.985 304.075 173.757 302.994C173.529 301.913 172.469 301.222 171.388 301.449L172.212 305.363ZM182.773 298.664C181.71 298.963 181.089 300.067 181.388 301.13C181.686 302.194 182.791 302.814 183.854 302.516L182.773 298.664ZM185.774 301.965C186.834 301.654 187.441 300.542 187.13 299.482C186.819 298.422 185.708 297.815 184.648 298.126L185.774 301.965ZM195.747 294.42C194.713 294.81 194.191 295.963 194.58 296.997C194.97 298.03 196.124 298.553 197.157 298.163L195.747 294.42ZM199.024 297.446C200.053 297.043 200.56 295.882 200.157 294.854C199.754 293.826 198.594 293.318 197.565 293.721L199.024 297.446ZM208.266 289.024C207.274 289.509 206.863 290.706 207.348 291.699C207.833 292.691 209.03 293.103 210.023 292.618L208.266 289.024ZM211.818 291.725C212.803 291.226 213.198 290.023 212.699 289.037C212.201 288.052 210.997 287.657 210.012 288.156L211.818 291.725ZM220.202 282.451C219.262 283.031 218.969 284.263 219.549 285.203C220.129 286.143 221.361 286.436 222.301 285.856L220.202 282.451ZM224.005 284.79C224.937 284.197 225.212 282.961 224.619 282.029C224.026 281.097 222.79 280.822 221.858 281.414L224.005 284.79ZM231.442 274.745C230.562 275.412 230.39 276.667 231.058 277.547C231.726 278.427 232.98 278.599 233.86 277.931L231.442 274.745ZM235.456 276.703C236.327 276.023 236.482 274.766 235.802 273.896C235.122 273.025 233.865 272.87 232.995 273.55L235.456 276.703ZM241.91 266.004C241.095 266.75 241.039 268.015 241.785 268.83C242.531 269.644 243.796 269.7 244.611 268.955L241.91 266.004ZM246.086 267.587C246.891 266.831 246.931 265.565 246.175 264.76C245.419 263.955 244.153 263.915 243.348 264.671L246.086 267.587ZM251.575 256.361C250.826 257.173 250.878 258.439 251.69 259.187C252.502 259.936 253.767 259.885 254.516 259.073L251.575 256.361ZM255.865 257.593C256.604 256.773 256.539 255.508 255.718 254.769C254.897 254.029 253.633 254.095 252.893 254.915L255.865 257.593ZM260.454 245.95C259.769 246.817 259.917 248.074 260.783 248.759C261.65 249.444 262.907 249.297 263.592 248.43L260.454 245.95ZM264.814 246.868C265.49 245.995 265.33 244.739 264.457 244.063C263.584 243.387 262.327 243.546 261.651 244.42L264.814 246.868ZM268.574 234.918C267.949 235.829 268.18 237.074 269.091 237.699C270.001 238.324 271.246 238.093 271.871 237.182L268.574 234.918ZM272.996 235.528C273.613 234.612 273.37 233.369 272.454 232.752C271.538 232.135 270.295 232.378 269.678 233.294L272.996 235.528ZM275.976 223.406C275.406 224.352 275.71 225.581 276.656 226.151C277.602 226.721 278.831 226.417 279.401 225.471L275.976 223.406ZM280.424 223.76C280.987 222.81 280.673 221.583 279.723 221.02C278.772 220.457 277.546 220.771 276.983 221.721L280.424 223.76ZM282.764 211.445C282.243 212.419 282.61 213.631 283.585 214.152C284.559 214.673 285.77 214.305 286.291 213.331L282.764 211.445ZM102 310.861C102.33 310.861 102.66 310.861 102.991 310.861L102.987 306.861C102.658 306.861 102.329 306.861 102 306.861V310.861ZM114.873 310.772C115.535 310.762 116.196 310.751 116.857 310.739L116.783 306.739C116.126 306.752 115.469 306.763 114.812 306.773L114.873 310.772ZM128.754 310.382C129.416 310.354 130.078 310.324 130.739 310.293L130.549 306.297C129.894 306.328 129.239 306.358 128.583 306.386L128.754 310.382ZM142.637 309.53C143.298 309.476 143.959 309.419 144.619 309.361L144.265 305.377C143.614 305.434 142.962 305.49 142.31 305.543L142.637 309.53ZM156.49 308.048C157.148 307.96 157.806 307.869 158.462 307.775L157.897 303.815C157.252 303.907 156.605 303.997 155.958 304.084L156.49 308.048ZM170.257 305.765C170.91 305.634 171.561 305.501 172.212 305.363L171.388 301.449C170.75 301.584 170.112 301.715 169.473 301.842L170.257 305.765ZM183.854 302.516C184.495 302.336 185.135 302.152 185.774 301.965L184.648 298.126C184.024 298.309 183.399 298.489 182.773 298.664L183.854 302.516ZM197.157 298.163C197.781 297.928 198.403 297.689 199.024 297.446L197.565 293.721C196.96 293.958 196.354 294.191 195.747 294.42L197.157 298.163ZM210.023 292.618C210.622 292.325 211.22 292.027 211.818 291.725L210.012 288.156C209.431 288.45 208.849 288.739 208.266 289.024L210.023 292.618ZM222.301 285.856C222.87 285.506 223.438 285.15 224.005 284.79L221.858 281.414C221.307 281.765 220.755 282.11 220.202 282.451L222.301 285.856ZM233.86 277.931C234.393 277.526 234.925 277.117 235.456 276.703L232.995 273.55C232.478 273.953 231.961 274.351 231.442 274.745L233.86 277.931ZM244.611 268.955C245.103 268.503 245.595 268.048 246.086 267.587L243.348 264.671C242.87 265.12 242.39 265.564 241.91 266.004L244.611 268.955ZM254.516 259.073C254.966 258.584 255.416 258.091 255.865 257.593L252.893 254.915C252.455 255.402 252.015 255.884 251.575 256.361L254.516 259.073ZM263.592 248.43C264.001 247.914 264.408 247.393 264.814 246.868L261.651 244.42C261.253 244.934 260.854 245.444 260.454 245.95L263.592 248.43ZM271.871 237.182C272.247 236.635 272.622 236.083 272.996 235.528L269.678 233.294C269.311 233.839 268.942 234.381 268.574 234.918L271.871 237.182ZM279.401 225.471C279.743 224.904 280.084 224.334 280.424 223.76L276.983 221.721C276.648 222.286 276.312 222.848 275.976 223.406L279.401 225.471ZM286.291 213.331C286.45 213.034 286.609 212.736 286.767 212.437L283.233 210.563C283.077 210.858 282.92 211.152 282.764 211.445L286.291 213.331Z"
			fill="#7AE82F"
		/>
		<path
			d="M88.2026 248.521C87.6618 248.409 87.1326 248.757 87.0207 249.297C86.9088 249.838 87.2566 250.367 87.7974 250.479L88.2026 248.521ZM274.491 197.868C274.418 197.321 273.916 196.936 273.368 197.009L264.447 198.196C263.899 198.269 263.515 198.771 263.587 199.319C263.66 199.866 264.163 200.251 264.71 200.178L272.641 199.123L273.696 207.053C273.769 207.601 274.271 207.985 274.819 207.913C275.366 207.84 275.751 207.337 275.678 206.79L274.491 197.868ZM88.7455 250.674C89.2866 250.785 89.8149 250.436 89.9255 249.895C90.036 249.354 89.687 248.825 89.1459 248.715L88.7455 250.674ZM100.58 250.869C100.036 250.775 99.5185 251.141 99.4249 251.685C99.3314 252.229 99.6968 252.746 100.241 252.84L100.58 250.869ZM102.162 253.165C102.706 253.255 103.221 252.887 103.312 252.342C103.402 251.797 103.034 251.282 102.489 251.192L102.162 253.165ZM113.996 252.895C113.449 252.824 112.947 253.211 112.876 253.758C112.805 254.306 113.192 254.808 113.74 254.878L113.996 252.895ZM115.68 255.123C116.228 255.19 116.727 254.801 116.794 254.253C116.862 253.704 116.472 253.205 115.924 253.138L115.68 255.123ZM127.488 254.324C126.938 254.279 126.455 254.689 126.41 255.24C126.365 255.79 126.775 256.273 127.326 256.318L127.488 254.324ZM129.271 256.47C129.822 256.511 130.302 256.097 130.343 255.547C130.384 254.996 129.971 254.516 129.42 254.475L129.271 256.47ZM141.026 255.075C140.474 255.059 140.014 255.494 139.998 256.046C139.983 256.598 140.418 257.059 140.97 257.074L141.026 255.075ZM142.919 257.121C143.472 257.132 143.928 256.694 143.939 256.142C143.95 255.589 143.512 255.133 142.96 255.122L142.919 257.121ZM154.575 255.059C154.023 255.077 153.59 255.538 153.607 256.09C153.625 256.642 154.086 257.076 154.638 257.058L154.575 255.059ZM156.59 256.987C157.142 256.965 157.571 256.499 157.549 255.948C157.526 255.396 157.061 254.967 156.509 254.989L156.59 256.987ZM168.089 254.185C167.539 254.239 167.138 254.729 167.192 255.279C167.247 255.828 167.737 256.229 168.286 256.175L168.089 254.185ZM170.231 255.972C170.78 255.912 171.177 255.418 171.117 254.869C171.057 254.32 170.563 253.924 170.014 253.984L170.231 255.972ZM181.499 252.357C180.955 252.452 180.592 252.971 180.687 253.515C180.782 254.059 181.301 254.422 181.845 254.327L181.499 252.357ZM183.771 253.978C184.314 253.877 184.672 253.355 184.57 252.812C184.469 252.269 183.947 251.911 183.404 252.012L183.771 253.978ZM194.718 249.486C194.184 249.626 193.864 250.172 194.003 250.707C194.143 251.241 194.689 251.561 195.224 251.421L194.718 249.486ZM197.113 250.915C197.646 250.769 197.959 250.219 197.813 249.686C197.667 249.154 197.117 248.84 196.584 248.987L197.113 250.915ZM207.637 245.498C207.117 245.684 206.847 246.257 207.033 246.777C207.22 247.296 207.792 247.567 208.312 247.38L207.637 245.498ZM210.146 246.708C210.664 246.515 210.926 245.939 210.733 245.421C210.54 244.904 209.963 244.641 209.446 244.835L210.146 246.708ZM220.125 240.344C219.625 240.579 219.41 241.174 219.645 241.674C219.879 242.174 220.475 242.389 220.975 242.154L220.125 240.344ZM222.738 241.311C223.235 241.07 223.441 240.471 223.2 239.975C222.958 239.478 222.359 239.271 221.863 239.513L222.738 241.311ZM232.054 234.013C231.58 234.296 231.424 234.91 231.707 235.384C231.989 235.859 232.603 236.014 233.078 235.732L232.054 234.013ZM234.75 234.72C235.221 234.43 235.368 233.815 235.079 233.344C234.789 232.874 234.173 232.727 233.703 233.016L234.75 234.72ZM243.302 226.539C242.858 226.867 242.764 227.493 243.092 227.937C243.42 228.381 244.046 228.476 244.49 228.148L243.302 226.539ZM246.054 226.976C246.494 226.642 246.58 226.014 246.245 225.575C245.911 225.135 245.284 225.049 244.844 225.384L246.054 226.976ZM253.767 217.996C253.357 218.365 253.324 218.997 253.693 219.408C254.062 219.818 254.695 219.852 255.105 219.482L253.767 217.996ZM256.546 218.167C256.952 217.792 256.977 217.16 256.602 216.754C256.227 216.349 255.594 216.324 255.189 216.699L256.546 218.167ZM263.384 208.491C263.009 208.897 263.034 209.53 263.44 209.904C263.846 210.279 264.479 210.254 264.853 209.848L263.384 208.491ZM266.162 208.412C266.531 208.001 266.498 207.369 266.087 207C265.677 206.63 265.045 206.664 264.675 207.074L266.162 208.412ZM272.109 198.168C271.771 198.604 271.85 199.232 272.287 199.571C272.724 199.909 273.352 199.829 273.69 199.392L272.109 198.168ZM87.7974 250.479C88.1129 250.545 88.4289 250.61 88.7455 250.674L89.1459 248.715C88.8309 248.65 88.5165 248.586 88.2026 248.521L87.7974 250.479ZM100.241 252.84C100.879 252.95 101.52 253.058 102.162 253.165L102.489 251.192C101.851 251.086 101.215 250.978 100.58 250.869L100.241 252.84ZM113.74 254.878C114.385 254.962 115.032 255.043 115.68 255.123L115.924 253.138C115.28 253.059 114.638 252.978 113.996 252.895L113.74 254.878ZM127.326 256.318C127.973 256.371 128.622 256.421 129.271 256.47L129.42 254.475C128.775 254.427 128.131 254.377 127.488 254.324L127.326 256.318ZM140.97 257.074C141.619 257.093 142.269 257.108 142.919 257.121L142.96 255.122C142.315 255.109 141.67 255.093 141.026 255.075L140.97 257.074ZM154.638 257.058C155.289 257.038 155.939 257.014 156.59 256.987L156.509 254.989C155.864 255.016 155.219 255.039 154.575 255.059L154.638 257.058ZM168.286 256.175C168.935 256.111 169.583 256.043 170.231 255.972L170.014 253.984C169.372 254.054 168.731 254.121 168.089 254.185L168.286 256.175ZM181.845 254.327C182.487 254.214 183.129 254.098 183.771 253.978L183.404 252.012C182.769 252.131 182.135 252.246 181.499 252.357L181.845 254.327ZM195.224 251.421C195.854 251.257 196.484 251.088 197.113 250.915L196.584 248.987C195.963 249.157 195.341 249.324 194.718 249.486L195.224 251.421ZM208.312 247.38C208.924 247.16 209.536 246.936 210.146 246.708L209.446 244.835C208.844 245.06 208.241 245.281 207.637 245.498L208.312 247.38ZM220.975 242.154C221.564 241.878 222.151 241.597 222.738 241.311L221.863 239.513C221.285 239.794 220.705 240.071 220.125 240.344L220.975 242.154ZM233.078 235.732C233.637 235.399 234.194 235.062 234.75 234.72L233.703 233.016C233.155 233.353 232.605 233.685 232.054 234.013L233.078 235.732ZM244.49 228.148C245.013 227.762 245.534 227.371 246.054 226.976L244.844 225.384C244.332 225.773 243.818 226.158 243.302 226.539L244.49 228.148ZM255.105 219.482C255.587 219.048 256.068 218.61 256.546 218.167L255.189 216.699C254.716 217.136 254.243 217.568 253.767 217.996L255.105 219.482ZM264.853 209.848C265.291 209.373 265.727 208.895 266.162 208.412L264.675 207.074C264.246 207.551 263.816 208.023 263.384 208.491L264.853 209.848ZM273.69 199.392C273.892 199.132 274.093 198.87 274.294 198.608L272.706 197.392C272.507 197.652 272.308 197.91 272.109 198.168L273.69 199.392ZM88.4052 247.541C87.3236 247.318 86.2653 248.013 86.0415 249.095C85.8177 250.176 86.5131 251.235 87.5948 251.459L88.4052 247.541ZM275.483 197.736C275.337 196.641 274.331 195.872 273.236 196.017L255.393 198.391C254.299 198.537 253.529 199.543 253.675 200.638C253.82 201.733 254.826 202.502 255.921 202.356L271.781 200.246L273.891 216.107C274.037 217.201 275.043 217.971 276.138 217.825C277.233 217.68 278.002 216.674 277.856 215.579L275.483 197.736ZM88.5453 251.654C89.6275 251.875 90.684 251.177 90.9052 250.095C91.1264 249.013 90.4284 247.956 89.3462 247.735L88.5453 251.654ZM100.749 249.883C99.6606 249.696 98.6265 250.427 98.4394 251.516C98.2523 252.604 98.9831 253.638 100.072 253.826L100.749 249.883ZM101.998 254.151C103.087 254.332 104.117 253.595 104.298 252.506C104.479 251.416 103.743 250.386 102.653 250.205L101.998 254.151ZM114.125 251.903C113.029 251.761 112.026 252.535 111.885 253.63C111.743 254.725 112.516 255.728 113.611 255.87L114.125 251.903ZM115.558 256.116C116.654 256.25 117.652 255.471 117.787 254.374C117.922 253.278 117.142 252.28 116.046 252.146L115.558 256.116ZM127.57 253.328C126.469 253.238 125.504 254.057 125.414 255.158C125.324 256.259 126.143 257.225 127.244 257.314L127.57 253.328ZM129.197 257.467C130.299 257.549 131.258 256.722 131.34 255.621C131.422 254.519 130.596 253.56 129.494 253.478L129.197 257.467ZM141.054 254.075C139.95 254.044 139.03 254.914 138.999 256.018C138.968 257.122 139.837 258.043 140.941 258.074L141.054 254.075ZM142.899 258.121C144.004 258.143 144.917 257.266 144.939 256.162C144.961 255.057 144.084 254.144 142.98 254.122L142.899 258.121ZM154.543 254.06C153.439 254.095 152.573 255.018 152.608 256.122C152.643 257.226 153.566 258.093 154.67 258.058L154.543 254.06ZM156.631 257.987C157.735 257.942 158.593 257.01 158.548 255.907C158.503 254.803 157.572 253.945 156.468 253.99L156.631 257.987ZM167.99 253.19C166.891 253.299 166.088 254.278 166.197 255.377C166.306 256.476 167.286 257.279 168.385 257.17L167.99 253.19ZM170.34 256.966C171.438 256.846 172.231 255.859 172.111 254.761C171.991 253.663 171.003 252.87 169.905 252.99L170.34 256.966ZM181.327 251.372C180.239 251.563 179.511 252.599 179.702 253.687C179.893 254.775 180.929 255.503 182.017 255.312L181.327 251.372ZM183.955 254.961C185.041 254.758 185.756 253.714 185.553 252.628C185.351 251.542 184.306 250.826 183.22 251.029L183.955 254.961ZM194.465 248.519C193.397 248.798 192.757 249.891 193.036 250.959C193.315 252.028 194.408 252.668 195.476 252.389L194.465 248.519ZM197.378 251.88C198.443 251.587 199.07 250.487 198.778 249.422C198.485 248.357 197.385 247.73 196.32 248.022L197.378 251.88ZM207.299 244.556C206.259 244.929 205.719 246.075 206.092 247.114C206.465 248.154 207.61 248.694 208.65 248.321L207.299 244.556ZM210.496 247.645C211.531 247.258 212.056 246.106 211.67 245.071C211.283 244.037 210.131 243.511 209.096 243.898L210.496 247.645ZM219.7 239.439C218.7 239.908 218.27 241.099 218.739 242.099C219.209 243.099 220.4 243.529 221.4 243.059L219.7 239.439ZM223.175 242.21C224.169 241.727 224.582 240.53 224.099 239.537C223.615 238.544 222.418 238.13 221.425 238.614L223.175 242.21ZM231.543 233.154C230.594 233.719 230.283 234.947 230.848 235.896C231.413 236.845 232.64 237.156 233.589 236.591L231.543 233.154ZM235.274 235.572C236.215 234.993 236.509 233.761 235.93 232.82C235.352 231.879 234.12 231.585 233.179 232.164L235.274 235.572ZM242.708 225.734C241.82 226.39 241.631 227.642 242.287 228.531C242.943 229.42 244.195 229.608 245.084 228.952L242.708 225.734ZM246.659 227.772C247.539 227.104 247.71 225.849 247.042 224.97C246.373 224.09 245.118 223.919 244.239 224.588L246.659 227.772ZM253.098 217.252C252.277 217.991 252.211 219.256 252.95 220.077C253.689 220.898 254.953 220.964 255.774 220.225L253.098 217.252ZM257.225 218.902C258.036 218.152 258.086 216.886 257.336 216.075C256.586 215.264 255.321 215.215 254.51 215.965L257.225 218.902ZM262.649 207.813C261.9 208.625 261.95 209.89 262.762 210.639C263.573 211.388 264.839 211.338 265.588 210.526L262.649 207.813ZM266.905 209.081C267.644 208.26 267.577 206.995 266.756 206.256C265.935 205.518 264.671 205.584 263.932 206.405L266.905 209.081ZM271.318 197.555C270.642 198.428 270.801 199.685 271.675 200.361C272.548 201.038 273.804 200.878 274.481 200.005L271.318 197.555ZM87.5948 251.459C87.911 251.524 88.2279 251.589 88.5453 251.654L89.3462 247.735C89.032 247.671 88.7183 247.606 88.4052 247.541L87.5948 251.459ZM100.072 253.826C100.712 253.936 101.354 254.044 101.998 254.151L102.653 250.205C102.017 250.099 101.382 249.992 100.749 249.883L100.072 253.826ZM113.611 255.87C114.259 255.954 114.908 256.036 115.558 256.116L116.046 252.146C115.404 252.067 114.764 251.986 114.125 251.903L113.611 255.87ZM127.244 257.314C127.894 257.368 128.545 257.418 129.197 257.467L129.494 253.478C128.852 253.43 128.21 253.38 127.57 253.328L127.244 257.314ZM140.941 258.074C141.593 258.092 142.246 258.108 142.899 258.121L142.98 254.122C142.337 254.109 141.696 254.093 141.054 254.075L140.941 258.074ZM154.67 258.058C155.323 258.037 155.977 258.013 156.631 257.987L156.468 253.99C155.826 254.016 155.185 254.039 154.543 254.06L154.67 258.058ZM168.385 257.17C169.037 257.106 169.688 257.038 170.34 256.966L169.905 252.99C169.267 253.06 168.629 253.126 167.99 253.19L168.385 257.17ZM182.017 255.312C182.663 255.199 183.309 255.082 183.955 254.961L183.22 251.029C182.59 251.147 181.958 251.261 181.327 251.372L182.017 255.312ZM195.476 252.389C196.111 252.223 196.745 252.053 197.378 251.88L196.32 248.022C195.702 248.192 195.084 248.357 194.465 248.519L195.476 252.389ZM208.65 248.321C209.266 248.1 209.882 247.875 210.496 247.645L209.096 243.898C208.498 244.122 207.899 244.341 207.299 244.556L208.65 248.321ZM221.4 243.059C221.993 242.781 222.585 242.498 223.175 242.21L221.425 238.614C220.851 238.893 220.276 239.168 219.7 239.439L221.4 243.059ZM233.589 236.591C234.152 236.256 234.714 235.916 235.274 235.572L233.179 232.164C232.635 232.498 232.09 232.828 231.543 233.154L233.589 236.591ZM245.084 228.952C245.611 228.563 246.136 228.17 246.659 227.772L244.239 224.588C243.73 224.974 243.22 225.356 242.708 225.734L245.084 228.952ZM255.774 220.225C256.26 219.789 256.743 219.347 257.225 218.902L254.51 215.965C254.041 216.398 253.57 216.827 253.098 217.252L255.774 220.225ZM265.588 210.526C266.029 210.049 266.468 209.567 266.905 209.081L263.932 206.405C263.506 206.879 263.078 207.348 262.649 207.813L265.588 210.526ZM274.481 200.005C274.684 199.743 274.886 199.48 275.088 199.215L271.912 196.785C271.714 197.043 271.517 197.299 271.318 197.555L274.481 200.005Z"
			fill="#7AE82F"
		/>
		<path
			d="M106.044 172.661C105.58 172.36 104.961 172.493 104.661 172.956C104.36 173.42 104.493 174.039 104.956 174.339L106.044 172.661ZM253.992 149.872C253.921 149.324 253.419 148.937 252.872 149.008L243.946 150.163C243.398 150.234 243.012 150.736 243.083 151.283C243.154 151.831 243.655 152.218 244.203 152.147L252.137 151.12L253.163 159.054C253.234 159.602 253.736 159.988 254.283 159.917C254.831 159.846 255.218 159.345 255.147 158.797L253.992 149.872ZM105.771 174.859C106.239 175.153 106.856 175.012 107.15 174.545C107.444 174.077 107.303 173.46 106.836 173.166L105.771 174.859ZM116.944 178.499C116.439 178.275 115.848 178.504 115.625 179.009C115.402 179.514 115.63 180.104 116.135 180.328L116.944 178.499ZM117.914 181.093C118.424 181.306 119.009 181.065 119.222 180.555C119.435 180.046 119.195 179.46 118.685 179.247L117.914 181.093ZM129.503 183.054C128.973 182.9 128.418 183.204 128.263 183.734C128.108 184.264 128.412 184.819 128.942 184.974L129.503 183.054ZM130.804 185.501C131.337 185.647 131.887 185.334 132.033 184.801C132.179 184.269 131.866 183.718 131.333 183.572L130.804 185.501ZM142.538 186.07C141.994 185.975 141.476 186.339 141.381 186.883C141.286 187.427 141.65 187.945 142.194 188.04L142.538 186.07ZM144.11 188.36C144.655 188.446 145.168 188.075 145.255 187.529C145.341 186.984 144.97 186.471 144.424 186.384L144.11 188.36ZM155.831 187.69C155.28 187.651 154.802 188.066 154.763 188.617C154.724 189.167 155.139 189.646 155.69 189.685L155.831 187.69ZM157.634 189.809C158.186 189.84 158.658 189.418 158.689 188.867C158.72 188.315 158.298 187.843 157.747 187.812L157.634 189.809ZM169.229 187.973C168.677 187.989 168.242 188.449 168.258 189.001C168.274 189.553 168.734 189.988 169.286 189.973L169.229 187.973ZM171.226 189.904C171.778 189.88 172.206 189.414 172.183 188.862C172.159 188.31 171.693 187.882 171.141 187.906L171.226 189.904ZM182.583 186.923C182.036 186.994 181.649 187.496 181.721 188.044C181.792 188.591 182.294 188.978 182.841 188.906L182.583 186.923ZM184.767 188.642C185.314 188.562 185.693 188.055 185.614 187.508C185.534 186.962 185.027 186.583 184.48 186.662L184.767 188.642ZM195.752 184.502C195.215 184.631 194.884 185.171 195.013 185.708C195.142 186.245 195.682 186.575 196.219 186.447L195.752 184.502ZM198.106 185.978C198.641 185.84 198.964 185.295 198.826 184.76C198.689 184.225 198.144 183.903 197.609 184.041L198.106 185.978ZM208.566 180.648C208.047 180.837 207.78 181.412 207.97 181.93C208.159 182.449 208.733 182.716 209.252 182.526L208.566 180.648ZM211.074 181.843C211.589 181.644 211.846 181.066 211.648 180.55C211.449 180.035 210.87 179.778 210.355 179.976L211.074 181.843ZM220.814 175.296C220.323 175.549 220.13 176.152 220.383 176.643C220.636 177.134 221.239 177.327 221.73 177.074L220.814 175.296ZM223.453 176.167C223.939 175.905 224.121 175.298 223.859 174.812C223.597 174.326 222.991 174.144 222.505 174.406L223.453 176.167ZM232.255 168.402C231.802 168.719 231.692 169.342 232.009 169.795C232.326 170.247 232.95 170.357 233.402 170.04L232.255 168.402ZM234.985 168.907C235.431 168.581 235.528 167.956 235.202 167.51C234.876 167.064 234.251 166.967 233.805 167.292L234.985 168.907ZM242.606 159.986C242.204 160.365 242.185 160.998 242.564 161.4C242.942 161.802 243.575 161.821 243.977 161.443L242.606 159.986ZM245.384 160.09C245.778 159.703 245.784 159.07 245.397 158.676C245.01 158.282 244.377 158.276 243.982 158.663L245.384 160.09ZM251.618 150.147C251.276 150.581 251.351 151.209 251.784 151.551C252.218 151.893 252.847 151.818 253.189 151.385L251.618 150.147ZM104.956 174.339C105.226 174.514 105.497 174.687 105.771 174.859L106.836 173.166C106.569 172.999 106.305 172.83 106.044 172.661L104.956 174.339ZM116.135 180.328C116.722 180.587 117.315 180.842 117.914 181.093L118.685 179.247C118.099 179.002 117.518 178.753 116.944 178.499L116.135 180.328ZM128.942 184.974C129.559 185.154 130.18 185.33 130.804 185.501L131.333 183.572C130.719 183.404 130.109 183.231 129.503 183.054L128.942 184.974ZM142.194 188.04C142.83 188.151 143.469 188.258 144.11 188.36L144.424 186.384C143.793 186.284 143.164 186.179 142.538 186.07L142.194 188.04ZM155.69 189.685C156.336 189.731 156.985 189.772 157.634 189.809L157.747 187.812C157.107 187.776 156.468 187.735 155.831 187.69L155.69 189.685ZM169.286 189.973C169.932 189.954 170.579 189.931 171.226 189.904L171.141 187.906C170.503 187.933 169.866 187.955 169.229 187.973L169.286 189.973ZM182.841 188.906C183.483 188.823 184.126 188.735 184.767 188.642L184.48 186.662C183.848 186.754 183.216 186.841 182.583 186.923L182.841 188.906ZM196.219 186.447C196.849 186.295 197.478 186.139 198.106 185.978L197.609 184.041C196.991 184.199 196.372 184.353 195.752 184.502L196.219 186.447ZM209.252 182.526C209.861 182.304 210.468 182.076 211.074 181.843L210.355 179.976C209.76 180.205 209.164 180.429 208.566 180.648L209.252 182.526ZM221.73 177.074C222.307 176.777 222.881 176.475 223.453 176.167L222.505 174.406C221.944 174.708 221.38 175.005 220.814 175.296L221.73 177.074ZM233.402 170.04C233.933 169.668 234.461 169.29 234.985 168.907L233.805 167.292C233.291 167.668 232.775 168.038 232.255 168.402L233.402 170.04ZM243.977 161.443C244.45 160.997 244.919 160.547 245.384 160.09L243.982 158.663C243.528 159.11 243.069 159.551 242.606 159.986L243.977 161.443ZM253.189 151.385C253.391 151.128 253.592 150.87 253.792 150.611L252.208 149.389C252.012 149.643 251.816 149.896 251.618 150.147L253.189 151.385ZM106.587 171.821C105.66 171.221 104.422 171.486 103.821 172.413C103.221 173.34 103.486 174.578 104.413 175.179L106.587 171.821ZM254.983 149.743C254.842 148.648 253.839 147.875 252.743 148.017L234.892 150.327C233.797 150.468 233.024 151.471 233.165 152.567C233.307 153.662 234.31 154.435 235.406 154.294L251.273 152.24L253.327 168.108C253.468 169.203 254.471 169.976 255.567 169.835C256.662 169.693 257.435 168.69 257.294 167.594L254.983 149.743ZM105.239 175.706C106.175 176.294 107.409 176.012 107.997 175.077C108.585 174.142 108.303 172.907 107.368 172.319L105.239 175.706ZM117.349 177.584C116.338 177.137 115.157 177.594 114.711 178.604C114.264 179.614 114.72 180.795 115.731 181.242L117.349 177.584ZM117.529 182.015C118.548 182.441 119.719 181.96 120.145 180.941C120.571 179.922 120.09 178.75 119.071 178.325L117.529 182.015ZM129.784 182.095C128.723 181.785 127.613 182.393 127.303 183.453C126.993 184.514 127.601 185.624 128.662 185.934L129.784 182.095ZM130.54 186.466C131.605 186.758 132.705 186.131 132.997 185.065C133.289 184 132.662 182.9 131.597 182.608L130.54 186.466ZM142.71 185.085C141.622 184.895 140.586 185.623 140.396 186.711C140.206 187.799 140.934 188.835 142.022 189.025L142.71 185.085ZM143.953 189.347C145.044 189.521 146.069 188.777 146.242 187.686C146.416 186.595 145.672 185.57 144.581 185.397L143.953 189.347ZM155.902 186.692C154.8 186.614 153.844 187.444 153.766 188.546C153.688 189.648 154.517 190.604 155.619 190.682L155.902 186.692ZM157.578 190.807C158.68 190.869 159.625 190.026 159.687 188.923C159.75 187.82 158.906 186.876 157.804 186.813L157.578 190.807ZM169.201 186.974C168.097 187.005 167.227 187.926 167.258 189.03C167.29 190.134 168.21 191.003 169.314 190.972L169.201 186.974ZM171.269 190.903C172.372 190.856 173.229 189.923 173.182 188.82C173.135 187.716 172.202 186.859 171.098 186.906L171.269 190.903ZM182.455 185.931C181.359 186.074 180.587 187.077 180.729 188.173C180.871 189.268 181.875 190.04 182.97 189.898L182.455 185.931ZM184.911 189.631C186.004 189.473 186.762 188.458 186.603 187.365C186.445 186.272 185.43 185.514 184.337 185.673L184.911 189.631ZM195.519 183.529C194.445 183.787 193.783 184.867 194.041 185.941C194.299 187.015 195.378 187.677 196.453 187.419L195.519 183.529ZM198.355 186.946C199.425 186.671 200.07 185.581 199.795 184.512C199.52 183.442 198.43 182.797 197.36 183.072L198.355 186.946ZM208.222 179.709C207.185 180.088 206.651 181.236 207.03 182.274C207.409 183.311 208.558 183.845 209.595 183.466L208.222 179.709ZM211.433 182.776C212.464 182.379 212.978 181.222 212.581 180.191C212.184 179.16 211.027 178.646 209.996 179.043L211.433 182.776ZM220.357 174.407C219.375 174.912 218.988 176.118 219.494 177.1C219.999 178.082 221.205 178.469 222.187 177.963L220.357 174.407ZM223.927 177.047C224.9 176.523 225.264 175.31 224.74 174.338C224.216 173.365 223.003 173.002 222.031 173.525L223.927 177.047ZM231.681 167.583C230.776 168.217 230.556 169.464 231.19 170.368C231.824 171.273 233.071 171.493 233.976 170.859L231.681 167.583ZM235.575 169.714C236.467 169.063 236.661 167.811 236.01 166.92C235.358 166.028 234.107 165.833 233.215 166.485L235.575 169.714ZM241.921 159.258C241.117 160.015 241.078 161.281 241.836 162.085C242.593 162.89 243.858 162.928 244.663 162.171L241.921 159.258ZM246.085 160.803C246.873 160.029 246.884 158.763 246.11 157.975C245.336 157.187 244.07 157.176 243.282 157.95L246.085 160.803ZM250.832 149.528C250.149 150.395 250.298 151.653 251.166 152.337C252.033 153.02 253.291 152.871 253.974 152.003L250.832 149.528ZM104.413 175.179C104.686 175.356 104.962 175.532 105.239 175.706L107.368 172.319C107.105 172.154 106.845 171.989 106.587 171.821L104.413 175.179ZM115.731 181.242C116.324 181.505 116.923 181.762 117.529 182.015L119.071 178.325C118.491 178.082 117.917 177.835 117.349 177.584L115.731 181.242ZM128.662 185.934C129.284 186.116 129.91 186.293 130.54 186.466L131.597 182.608C130.989 182.441 130.384 182.27 129.784 182.095L128.662 185.934ZM142.022 189.025C142.663 189.137 143.307 189.244 143.953 189.347L144.581 185.397C143.955 185.297 143.331 185.193 142.71 185.085L142.022 189.025ZM155.619 190.682C156.27 190.728 156.923 190.77 157.578 190.807L157.804 186.813C157.168 186.777 156.534 186.737 155.902 186.692L155.619 190.682ZM169.314 190.972C169.965 190.954 170.617 190.931 171.269 190.903L171.098 186.906C170.465 186.933 169.833 186.956 169.201 186.974L169.314 190.972ZM182.97 189.898C183.617 189.814 184.264 189.725 184.911 189.631L184.337 185.673C183.71 185.764 183.082 185.85 182.455 185.931L182.97 189.898ZM196.453 187.419C197.088 187.266 197.722 187.109 198.355 186.946L197.36 183.072C196.747 183.229 196.134 183.382 195.519 183.529L196.453 187.419ZM209.595 183.466C210.21 183.241 210.822 183.011 211.433 182.776L209.996 179.043C209.406 179.27 208.815 179.492 208.222 179.709L209.595 183.466ZM222.187 177.963C222.77 177.663 223.35 177.358 223.927 177.047L222.031 173.525C221.475 173.825 220.917 174.118 220.357 174.407L222.187 177.963ZM233.976 170.859C234.512 170.483 235.045 170.102 235.575 169.714L233.215 166.485C232.707 166.856 232.195 167.222 231.681 167.583L233.976 170.859ZM244.663 162.171C245.141 161.721 245.615 161.265 246.085 160.803L243.282 157.95C242.832 158.391 242.378 158.828 241.921 159.258L244.663 162.171ZM253.974 152.003C254.179 151.744 254.382 151.483 254.584 151.221L251.416 148.779C251.222 149.03 251.028 149.28 250.832 149.528L253.974 152.003Z"
			fill="#7AE82F"
		/>
		<path
			d="M80.8747 76.2196C80.4437 76.565 80.3743 77.1944 80.7196 77.6253C81.065 78.0563 81.6944 78.1257 82.1253 77.7804L80.8747 76.2196ZM250.745 96.9668C251.278 97.1079 251.826 96.7894 251.967 96.2555L254.266 87.5541C254.407 87.0202 254.089 86.473 253.555 86.3319C253.021 86.1908 252.474 86.5092 252.333 87.0432L250.289 94.7777L242.554 92.7339C242.02 92.5928 241.473 92.9112 241.332 93.4452C241.191 93.9792 241.509 94.5264 242.043 94.6675L250.745 96.9668ZM82.8849 77.1771C83.3189 76.8355 83.3938 76.2068 83.0522 75.7728C82.7107 75.3389 82.082 75.2639 81.648 75.6055L82.8849 77.1771ZM91.3458 68.7452C90.8797 69.0414 90.7418 69.6593 91.0379 70.1255C91.334 70.5917 91.952 70.7296 92.4182 70.4335L91.3458 68.7452ZM94.0691 69.4034C94.54 69.1148 94.6877 68.4991 94.3991 68.0282C94.1106 67.5573 93.4949 67.4096 93.024 67.6982L94.0691 69.4034ZM103.427 61.9759C102.931 62.2195 102.727 62.8188 102.97 63.3144C103.214 63.8101 103.813 64.0144 104.309 63.7707L103.427 61.9759ZM106.066 62.9233C106.565 62.6871 106.779 62.0909 106.543 61.5917C106.306 61.0924 105.71 60.8792 105.211 61.1154L106.066 62.9233ZM116.152 56.5195C115.634 56.7109 115.37 57.2861 115.561 57.8041C115.752 58.3222 116.328 58.5869 116.846 58.3955L116.152 56.5195ZM118.679 57.7328C119.2 57.5488 119.473 56.9775 119.289 56.4568C119.105 55.936 118.534 55.663 118.013 55.847L118.679 57.7328ZM129.36 52.3776C128.826 52.5163 128.505 53.0622 128.644 53.5968C128.783 54.1313 129.328 54.4522 129.863 54.3134L129.36 52.3776ZM131.753 53.837C132.289 53.7058 132.618 53.1646 132.487 52.6281C132.356 52.0916 131.814 51.763 131.278 51.8942L131.753 53.837ZM142.915 49.571C142.369 49.6558 141.995 50.1669 142.08 50.7127C142.165 51.2584 142.676 51.6321 143.222 51.5473L142.915 49.571ZM145.15 51.262C145.697 51.1852 146.078 50.6795 146.001 50.1326C145.924 49.5857 145.418 49.2046 144.872 49.2815L145.15 51.262ZM156.686 48.1463C156.134 48.1747 155.71 48.6448 155.738 49.1964C155.767 49.7479 156.237 50.172 156.788 50.1437L156.686 48.1463ZM158.734 50.0582C159.286 50.0381 159.717 49.5744 159.697 49.0225C159.677 48.4706 159.213 48.0395 158.661 48.0595L158.734 50.0582ZM170.533 48.1753C169.982 48.144 169.509 48.5656 169.478 49.117C169.447 49.6684 169.868 50.1407 170.42 50.172L170.533 48.1753ZM172.365 50.2981C172.915 50.3382 173.395 49.9242 173.435 49.3734C173.475 48.8226 173.061 48.3435 172.51 48.3034L172.365 50.2981ZM184.3 49.751C183.756 49.656 183.238 50.0201 183.143 50.5642C183.048 51.1083 183.412 51.6263 183.956 51.7212L184.3 49.751ZM185.871 52.0725C186.413 52.1768 186.938 51.8217 187.042 51.2794C187.146 50.7371 186.791 50.2128 186.249 50.1085L185.871 52.0725ZM197.783 52.9766C197.255 52.8141 196.696 53.1102 196.533 53.6381C196.371 54.1659 196.667 54.7255 197.195 54.888L197.783 52.9766ZM199.047 55.4775C199.572 55.6499 200.137 55.3644 200.31 54.8397C200.482 54.315 200.196 53.7499 199.672 53.5775L199.047 55.4775ZM210.736 57.9428C210.235 57.7099 209.64 57.927 209.407 58.4277C209.174 58.9285 209.391 59.5233 209.892 59.7562L210.736 57.9428ZM211.645 60.5935C212.141 60.8366 212.74 60.6317 212.983 60.1358C213.226 59.6398 213.021 59.0408 212.526 58.7977L211.645 60.5935ZM222.863 64.6935C222.401 64.39 221.781 64.5179 221.478 64.9793C221.174 65.4407 221.302 66.0608 221.763 66.3643L222.863 64.6935ZM223.373 67.4483C223.828 67.7617 224.45 67.6471 224.764 67.1923C225.077 66.7376 224.963 66.1149 224.508 65.8015L223.373 67.4483ZM233.846 73.1815C233.436 72.8113 232.804 72.8435 232.434 73.2534C232.064 73.6633 232.096 74.2956 232.506 74.6658L233.846 73.1815ZM233.935 75.9853C234.336 76.3644 234.969 76.3461 235.348 75.9445C235.728 75.5428 235.709 74.9099 235.308 74.5308L233.935 75.9853ZM243.407 83.2494C243.059 82.8212 242.429 82.7567 242.001 83.1055C241.572 83.4543 241.508 84.0841 241.857 84.5124L243.407 83.2494ZM243.074 86.0399C243.413 86.4756 244.041 86.5536 244.477 86.2142C244.913 85.8747 244.991 85.2464 244.651 84.8107L243.074 86.0399ZM251.355 94.6328C251.073 94.1583 250.459 94.0028 249.985 94.2854C249.51 94.568 249.355 95.1818 249.637 95.6563L251.355 94.6328ZM82.1253 77.7804C82.3775 77.5783 82.6307 77.3772 82.8849 77.1771L81.648 75.6055C81.3891 75.8092 81.1314 76.0139 80.8747 76.2196L82.1253 77.7804ZM92.4182 70.4335C92.965 70.0861 93.5154 69.7427 94.0691 69.4034L93.024 67.6982C92.4612 68.0431 91.9018 68.3921 91.3458 68.7452L92.4182 70.4335ZM104.309 63.7707C104.892 63.4841 105.478 63.2016 106.066 62.9233L105.211 61.1154C104.614 61.398 104.019 61.6848 103.427 61.9759L104.309 63.7707ZM116.846 58.3955C117.455 58.1703 118.066 57.9494 118.679 57.7328L118.013 55.847C117.391 56.0668 116.771 56.291 116.152 56.5195L116.846 58.3955ZM129.863 54.3134C130.492 54.1501 131.122 53.9913 131.753 53.837L131.278 51.8942C130.637 52.0508 129.998 52.2119 129.36 52.3776L129.863 54.3134ZM143.222 51.5473C143.864 51.4476 144.507 51.3525 145.15 51.262L144.872 49.2815C144.219 49.3733 143.566 49.4698 142.915 49.571L143.222 51.5473ZM156.788 50.1437C157.437 50.1103 158.086 50.0818 158.734 50.0582L158.661 48.0595C158.003 48.0835 157.344 48.1124 156.686 48.1463L156.788 50.1437ZM170.42 50.172C171.069 50.2089 171.717 50.2509 172.365 50.2981L172.51 48.3034C171.852 48.2554 171.193 48.2127 170.533 48.1753L170.42 50.172ZM183.956 51.7212C184.596 51.8328 185.234 51.9499 185.871 52.0725L186.249 50.1085C185.601 49.9837 184.951 49.8646 184.3 49.751L183.956 51.7212ZM197.195 54.888C197.814 55.0788 198.432 55.2753 199.047 55.4775L199.672 53.5775C199.044 53.3713 198.415 53.171 197.783 52.9766L197.195 54.888ZM209.892 59.7562C210.479 60.0293 211.064 60.3084 211.645 60.5935L212.526 58.7977C211.932 58.5066 211.335 58.2216 210.736 57.9428L209.892 59.7562ZM221.763 66.3643C222.303 66.7195 222.84 67.0808 223.373 67.4483L224.508 65.8015C223.963 65.4259 223.414 65.0566 222.863 64.6935L221.763 66.3643ZM232.506 74.6658C232.986 75.0995 233.462 75.5393 233.935 75.9853L235.308 74.5308C234.824 74.0748 234.337 73.625 233.846 73.1815L232.506 74.6658ZM241.857 84.5124C242.267 85.0156 242.672 85.5248 243.074 86.0399L244.651 84.8107C244.241 84.2842 243.826 83.7638 243.407 83.2494L241.857 84.5124ZM249.637 95.6563C249.804 95.9371 249.971 96.2193 250.136 96.503L251.864 95.497C251.696 95.2075 251.526 94.9195 251.355 94.6328L249.637 95.6563ZM80.2493 75.4393C79.3874 76.13 79.2486 77.3887 79.9393 78.2507C80.63 79.1126 81.8887 79.2514 82.7507 78.5607L80.2493 75.4393ZM250.489 97.9336C251.557 98.2158 252.651 97.5789 252.934 96.511L257.532 79.1083C257.814 78.0404 257.178 76.9459 256.11 76.6637C255.042 76.3815 253.947 77.0185 253.665 78.0864L249.577 93.5554L234.108 89.4677C233.04 89.1855 231.946 89.8225 231.664 90.8904C231.382 91.9583 232.018 93.0528 233.086 93.335L250.489 97.9336ZM83.5034 77.9629C84.3714 77.2798 84.5212 76.0223 83.8381 75.1544C83.1549 74.2864 81.8975 74.1366 81.0295 74.8197L83.5034 77.9629ZM90.8097 67.9011C89.8773 68.4934 89.6016 69.7293 90.1938 70.6617C90.786 71.5941 92.022 71.8698 92.9544 71.2776L90.8097 67.9011ZM94.5916 70.256C95.5334 69.6788 95.8289 68.4474 95.2518 67.5057C94.6746 66.5639 93.4432 66.2684 92.5014 66.8455L94.5916 70.256ZM102.986 61.0784C101.994 61.5657 101.586 62.7643 102.073 63.7556C102.56 64.7469 103.759 65.1554 104.75 64.6681L102.986 61.0784ZM106.494 63.8272C107.492 63.3549 107.919 62.1625 107.446 61.164C106.974 60.1656 105.782 59.7391 104.783 60.2114L106.494 63.8272ZM115.806 55.5815C114.77 55.9644 114.24 57.1147 114.623 58.1508C115.006 59.1868 116.156 59.7164 117.192 59.3335L115.806 55.5815ZM119.013 58.6757C120.054 58.3077 120.6 57.1652 120.232 56.1237C119.864 55.0822 118.722 54.5362 117.68 54.9041L119.013 58.6757ZM129.109 51.4096C128.04 51.6872 127.398 52.7789 127.676 53.8481C127.953 54.9172 129.045 55.5589 130.114 55.2813L129.109 51.4096ZM131.991 54.8084C133.063 54.546 133.721 53.4635 133.458 52.3905C133.196 51.3176 132.113 50.6605 131.04 50.9228L131.991 54.8084ZM142.761 48.5829C141.67 48.7524 140.922 49.7747 141.092 50.8662C141.261 51.9576 142.284 52.705 143.375 52.5355L142.761 48.5829ZM145.289 52.2523C146.383 52.0985 147.145 51.0872 146.991 49.9934C146.838 48.8995 145.826 48.1375 144.732 48.2912L145.289 52.2523ZM156.634 47.1476C155.531 47.2044 154.683 48.1447 154.74 49.2478C154.796 50.3509 155.737 51.1991 156.84 51.1423L156.634 47.1476ZM158.77 51.0575C159.874 51.0174 160.737 50.09 160.696 48.9862C160.656 47.8823 159.729 47.02 158.625 47.0602L158.77 51.0575ZM170.59 47.1769C169.487 47.1143 168.542 47.9575 168.48 49.0603C168.417 50.1631 169.26 51.1078 170.363 51.1704L170.59 47.1769ZM172.292 51.2954C173.394 51.3757 174.352 50.5477 174.432 49.4461C174.512 48.3444 173.684 47.3863 172.583 47.306L172.292 51.2954ZM184.471 48.7658C183.383 48.576 182.347 49.3042 182.157 50.3923C181.968 51.4805 182.696 52.5165 183.784 52.7063L184.471 48.7658ZM185.682 53.0545C186.767 53.2631 187.815 52.553 188.024 51.4683C188.233 50.3837 187.523 49.3352 186.438 49.1265L185.682 53.0545ZM198.077 52.0208C197.022 51.6958 195.902 52.2881 195.577 53.3438C195.252 54.3995 195.845 55.5188 196.9 55.8438L198.077 52.0208ZM198.735 56.4275C199.784 56.7724 200.915 56.2013 201.26 55.1519C201.604 54.1026 201.033 52.9723 199.984 52.6275L198.735 56.4275ZM211.157 57.0361C210.156 56.5702 208.966 57.0044 208.5 58.006C208.035 59.0075 208.469 60.197 209.47 60.6629L211.157 57.0361ZM211.205 61.4914C212.197 61.9776 213.395 61.5677 213.881 60.5759C214.367 59.5841 213.958 58.3859 212.966 57.8997L211.205 61.4914ZM223.412 63.8581C222.489 63.251 221.249 63.5069 220.642 64.4297C220.035 65.3525 220.291 66.5927 221.214 67.1998L223.412 63.8581ZM222.806 68.2716C223.715 68.8985 224.96 68.6693 225.587 67.7598C226.214 66.8503 225.985 65.6049 225.075 64.9781L222.806 68.2716ZM234.516 72.4393C233.697 71.699 232.432 71.7634 231.692 72.5832C230.951 73.4029 231.016 74.6676 231.835 75.4079L234.516 72.4393ZM233.248 76.7125C234.052 77.4707 235.317 77.4341 236.076 76.6309C236.834 75.8276 236.797 74.5618 235.994 73.8036L233.248 76.7125ZM244.183 82.6179C243.485 81.7615 242.226 81.6326 241.369 82.3301C240.513 83.0276 240.384 84.2874 241.081 85.1438L244.183 82.6179ZM242.285 86.6546C242.964 87.5259 244.22 87.6819 245.092 87.003C245.963 86.3241 246.119 85.0674 245.44 84.1961L242.285 86.6546ZM252.215 94.1211C251.649 93.1721 250.422 92.861 249.473 93.4262C248.524 93.9915 248.213 95.219 248.778 96.168L252.215 94.1211ZM82.7507 78.5607C83.0005 78.3605 83.2514 78.1612 83.5034 77.9629L81.0295 74.8197C80.7684 75.0252 80.5083 75.2317 80.2493 75.4393L82.7507 78.5607ZM92.9544 71.2776C93.4967 70.9331 94.0425 70.5926 94.5916 70.256L92.5014 66.8455C91.9341 67.1933 91.3701 67.5451 90.8097 67.9011L92.9544 71.2776ZM104.75 64.6681C105.329 64.3837 105.91 64.1034 106.494 63.8272L104.783 60.2114C104.181 60.4962 103.582 60.7852 102.986 61.0784L104.75 64.6681ZM117.192 59.3335C117.797 59.11 118.404 58.8907 119.013 58.6757L117.68 54.9041C117.053 55.1255 116.429 55.3513 115.806 55.5815L117.192 59.3335ZM130.114 55.2813C130.738 55.1192 131.364 54.9616 131.991 54.8084L131.04 50.9228C130.395 51.0806 129.752 51.2428 129.109 51.4096L130.114 55.2813ZM143.375 52.5355C144.012 52.4365 144.651 52.3421 145.289 52.2523L144.732 48.2912C144.075 48.3837 143.417 48.4809 142.761 48.5829L143.375 52.5355ZM156.84 51.1423C157.483 51.1092 158.127 51.081 158.77 51.0575L158.625 47.0602C157.961 47.0843 157.298 47.1135 156.634 47.1476L156.84 51.1423ZM170.363 51.1704C171.007 51.207 171.65 51.2486 172.292 51.2954L172.583 47.306C171.919 47.2576 171.255 47.2146 170.59 47.1769L170.363 51.1704ZM183.784 52.7063C184.418 52.817 185.051 52.933 185.682 53.0545L186.438 49.1265C185.784 49.0006 185.128 48.8804 184.471 48.7658L183.784 52.7063ZM196.9 55.8438C197.514 56.0327 198.126 56.2273 198.735 56.4275L199.984 52.6275C199.35 52.4193 198.715 52.2171 198.077 52.0208L196.9 55.8438ZM209.47 60.6629C210.051 60.9332 210.63 61.2093 211.205 61.4914L212.966 57.8997C212.366 57.6056 211.763 57.3178 211.157 57.0361L209.47 60.6629ZM221.214 67.1998C221.748 67.551 222.278 67.9083 222.806 68.2716L225.075 64.9781C224.525 64.5984 223.97 64.2251 223.412 63.8581L221.214 67.1998ZM231.835 75.4079C232.31 75.8367 232.781 76.2716 233.248 76.7125L235.994 73.8036C235.506 73.3425 235.013 72.8878 234.516 72.4393L231.835 75.4079ZM241.081 85.1438C241.487 85.6415 241.888 86.1451 242.285 86.6546L245.44 84.1961C245.025 83.6639 244.606 83.1379 244.183 82.6179L241.081 85.1438ZM248.778 96.168C248.944 96.4459 249.108 96.7252 249.271 97.006L252.729 94.994C252.558 94.7016 252.387 94.4106 252.215 94.1211L248.778 96.168Z"
			fill="#7AE82F"
		/>
	</svg>
