	<svg
		width="326"
		height="578"
		viewBox="0 0 326 578"
		fill="none"
		xmlns="http://www.w3.org/2000/svg"
	>
		<path
			d="M78.0719 207.077C78.4721 204.378 83.9906 205.59 86.9177 205.722C89.3496 205.831 91.2614 205.046 93.8289 204.516C96.6518 203.933 96.1843 202.136 96.5332 200.523C96.7414 199.561 98.1835 200.119 98.6868 200.536C100.407 201.959 101.086 202.971 103.404 204.053C105.241 204.91 107.131 205.725 107.549 207.346C107.655 207.76 107.673 208.019 108.174 208.267C109.735 209.038 110.655 210.263 112.654 210.819C114.381 211.299 115.892 211.008 116.543 212.708C117.118 214.212 115.294 217.75 116.626 218.91C118.982 220.963 122.194 212.615 122.271 211.889C122.68 208.036 102.062 200.823 107.02 198.123C110.068 196.463 110.394 196.561 106.873 194.886C103.767 193.408 102.265 192.422 102.407 189.693C102.471 188.457 103.313 186.492 101.871 185.462C98.8573 183.309 94.2616 182.971 90.3772 182.686L90.3535 182.684C87.2598 182.457 84.2157 182.418 81.1211 182.316C80.689 182.302 78.2686 182.392 78.5751 181.71C79.3477 179.991 82.2638 178.634 83.7737 177.281C84.179 176.918 87.4296 174.123 86.1879 173.394C85.358 172.908 83.5916 173.021 82.6336 172.896C78.9524 172.419 79.2841 171.995 80.8422 170.396C82.3934 168.803 83.2527 166.835 84.0608 164.983L84.0919 164.912C84.4367 164.123 84.6572 161.714 85.037 162.521C85.4625 163.427 86.0143 164.289 86.878 165.044C88.6282 166.574 90.0589 167.95 92.2648 169.23C96.0355 171.418 99.9743 173.365 103.588 175.711C105.703 177.084 107.565 178.664 109.683 180.022C112.244 181.663 111.159 184.343 110.721 186.494C110.141 189.347 111.102 186.885 112.652 187.092C112.985 187.136 114.23 189.13 114.389 189.297C115.66 190.625 117.23 192.011 119.042 192.991C120.52 193.791 124.6 190.568 125.563 190.117C129.372 188.332 128.141 193.317 130.991 193.741C133.47 194.111 137.679 190.156 139.472 189.316C140.227 188.962 139.966 191.421 140.989 191.013C142.604 190.37 144.323 189.195 145.505 188.192C145.772 187.965 146.056 187.278 146.324 187.523C146.844 187.999 147.231 191.21 148.315 191.15C150.713 191.018 152.557 188.995 154.335 188.111C154.93 187.815 155.833 189.301 156.211 189.452C157.677 190.036 159.262 187.31 159.771 186.725C160.049 186.405 160.996 184.877 161.031 184.94C161.729 186.182 162.518 187.343 163.621 188.447C166.429 191.258 167.746 187.454 168.627 185.589C169.687 183.343 169.194 183.089 170.36 185.388C171.056 186.76 174.488 182.684 175.032 182.196C176.515 180.866 175.99 182.084 177.52 182.196C178.755 182.287 180.362 181.271 181.435 180.917C184.499 179.907 188.161 181.622 191.365 180.516C192.632 180.078 193.144 179.735 194.57 179.84C195.59 179.915 196.379 180.028 197.318 179.787C200.741 178.908 214.919 173.312 217.806 171.738C219.2 170.978 220.5 170.007 221 168.765C221.071 168.589 220.693 168.327 220.887 168.21C222.122 167.462 228.787 169.607 229.77 169.846C231.954 170.378 244.313 163.161 245.297 165.178C245.773 166.153 244.339 167.757 244.265 168.765C244.153 170.285 247.934 171.493 249 172.739C249.896 173.787 250.188 174.733 248.947 175.56C245.796 177.66 242.381 180.025 238.751 181.682C236.842 182.553 235.6 184.016 235.201 185.667C234.812 187.272 236.643 192.026 235.095 193.04C232.291 194.876 219.494 196.035 223.516 200.536C226.474 203.847 202.819 215.953 200.741 214.918C199.218 214.16 196.852 211.206 195.225 211.087C193.585 210.966 192.621 211.784 192.584 212.825C192.5 215.196 195.247 218.055 197.112 219.973C199.484 222.413 200.094 223.718 199.878 226.663C199.685 229.3 197.774 233.215 202.654 233.573C204.555 233.713 206.489 233.957 208.344 233.627C209.245 233.466 210.182 232.989 211.113 232.937C211.42 232.92 211.465 235.556 211.767 235.919C213.872 238.453 221.239 241.044 215.743 243.938C211.208 246.326 200.019 249.006 207.933 253.898C208.72 254.384 210.309 254.675 209.244 255.251C206.671 256.642 203.312 257.265 200.712 258.616C197.828 260.115 201.109 263.47 195.906 263.985C190.674 264.503 186.965 263.856 183.769 260.214C181.641 257.79 182.721 255.754 184.17 253.355C185.077 251.855 188.093 247.57 185.688 245.959C183.434 244.449 180.745 243.575 179.103 241.667C176.839 239.035 174.744 237.196 174.042 234.097C173.364 231.1 173.447 228.234 173.666 225.249C173.885 222.269 172.092 219.288 171.085 216.385C170.55 214.844 170.386 219.622 170.34 220.248C170.117 223.283 169.629 226.179 168.561 229.102C166.539 234.632 161.66 235.991 155.667 239.126C148.212 243.025 167.65 247.114 169.396 250.558C170.067 251.879 163.254 253.869 163.103 255.927C162.888 258.847 173.438 257.014 175.733 257.182C177.96 257.346 176.236 261.547 176.665 262.645C177.524 264.841 179.836 266.278 182.892 266.565C185.82 266.84 187.377 266.709 189.639 268.299C191.87 269.869 193.346 271.616 193.179 273.881C192.659 280.968 182.81 281.815 175.635 285.057C169.454 287.85 162.488 291.136 154.648 290.733C145.296 290.251 141.958 285.666 135.963 281.124C133.982 279.623 124.874 273.551 124.511 278.497C124.465 279.121 125.178 283.502 123.934 283.211C122.514 282.879 121.532 281.136 120.94 280.312C113.097 269.391 110.729 257.443 104.055 246.197C98.7226 237.213 91.3098 228.947 84.8192 220.329C81.8066 216.328 77.3815 211.732 78.0719 207.077Z"
			fill="#824E41"
			fill-opacity="0.5"
		/>
	</svg>
